# MagicaVoxel @ Ephtracy

# group
o 

# material
mtllib Fox.mtl
usemtl palette

# normals
vn -1 0 0
vn 1 0 0
vn 0 0 1
vn 0 0 -1
vn 0 -1 0
vn 0 1 0

# texcoords
vt 0.00195313 0.5
vt 0.0214844 0.5
vt 0.0839844 0.5

# verts
v -0.2 -0.7 0.2
v -0.2 -0.7 -5.96046e-008
v -0.2 -0.6 0.2
v -0.2 -0.6 -5.96046e-008
v -0.2 -0.2 0.5
v -0.2 -0.2 0.4
v -0.2 -0.2 0.3
v -0.2 -0.1 0.5
v -0.2 -0.1 0.4
v -0.2 -0.1 0.3
v -0.0999999 -0.6 0.1
v -0.0999999 -0.6 -5.96046e-008
v -0.0999999 -0.4 0.1
v -0.0999999 -0.4 -5.96046e-008
v -0.0999999 -0.3 0.3
v -0.0999999 -0.3 0.1
v -0.0999999 -0.3 -5.96046e-008
v -0.0999999 -0.2 0.3
v -0.0999999 -0.2 0.2
v -0.0999999 -0.2 0.1
v -0.0999999 -0.1 0.4
v -0.0999999 -0.1 0.3
v -0.0999999 0 0.4
v -0.0999999 0 0.2
v 5.96046e-008 -0.4 0.2
v 5.96046e-008 -0.4 0.1
v 5.96046e-008 -0.3 0.4
v 5.96046e-008 -0.3 0.3
v 5.96046e-008 -0.3 0.2
v 5.96046e-008 -0.3 0.1
v 5.96046e-008 -0.3 -5.96046e-008
v 5.96046e-008 -0.2 0.4
v 5.96046e-008 -0.2 0.3
v 5.96046e-008 -0.2 0.1
v 5.96046e-008 -0.2 -5.96046e-008
v 5.96046e-008 -0.1 0.2
v 5.96046e-008 -0.1 0.1
v 5.96046e-008 0 0.2
v 5.96046e-008 0 0.1
v 0.1 -0.7 0.5
v 0.1 -0.7 0.3
v 0.1 -0.6 0.5
v 0.1 -0.6 0.3
v 0.1 -0.4 0.3
v 0.1 -0.4 0.2
v 0.1 -0.3 0.3
v 0.1 -0.3 0.2
v 0.2 -0.7 -0.1
v 0.2 -0.7 -0.3
v 0.2 -0.6 0.4
v 0.2 -0.6 0.3
v 0.2 -0.6 -0.1
v 0.2 -0.6 -0.3
v 0.2 -0.4 0.4
v 0.2 -0.4 0.3
v 0.2 -0.4 -5.96046e-008
v 0.2 -0.4 -0.1
v 0.2 -0.3 0.4
v 0.2 -0.3 0.3
v 0.2 -0.2 -5.96046e-008
v 0.2 -0.2 -0.1
v 0.3 -0.6 -0.2
v 0.3 -0.6 -0.3
v 0.3 -0.4 -0.1
v 0.3 -0.4 -0.2
v 0.3 -0.4 -0.3
v 0.3 -0.3 -0.2
v 0.3 -0.3 -0.3
v 0.3 -0.2 -0.1
v 0.3 -0.2 -0.2
v 0.4 -0.7 0.2
v 0.4 -0.7 -5.96046e-008
v 0.4 -0.6 0.2
v 0.4 -0.6 -5.96046e-008
v 0.5 -0.6 0.1
v 0.5 -0.6 -5.96046e-008
v 0.5 -0.4 0.1
v 0.5 -0.4 -5.96046e-008
v 0.5 -0.2 -0.1
v 0.5 -0.2 -0.2
v 0.5 -0.2 -0.3
v 0.5 -0.1 -0.1
v 0.5 -0.1 -0.3
v 0.6 -0.2 -0.3
v 0.6 -0.2 -0.4
v 0.6 -0.1 -0.2
v 0.6 -0.1 -0.3
v 0.6 -0.1 -0.4
v 0.6 -0.1 -0.5
v 0.6 0 -0.2
v 0.6 0 -0.5
v 0.7 -0.1 -0.5
v 0.7 -0.1 -0.6
v 0.7 0 -0.5
v 0.7 0 -0.6
v -0.0999999 -0.7 0.1
v -0.0999999 -0.7 -5.96046e-008
v -0.0999999 -0.6 0.1
v -0.0999999 -0.6 -5.96046e-008
v 5.96046e-008 -0.7 0.2
v 5.96046e-008 -0.7 0.1
v 5.96046e-008 -0.6 0.2
v 5.96046e-008 -0.6 0.1
v 5.96046e-008 -0.6 -5.96046e-008
v 5.96046e-008 -0.4 0.1
v 5.96046e-008 -0.4 -5.96046e-008
v 5.96046e-008 -0.2 0.5
v 5.96046e-008 -0.2 0.4
v 5.96046e-008 -0.1 0.5
v 5.96046e-008 -0.1 0.4
v 0.1 -0.2 0.4
v 0.1 -0.2 0.2
v 0.1 -0.1 0.3
v 0.1 -0.1 0.2
v 0.1 -0.1 0.1
v 0.1 0 0.4
v 0.1 0 0.3
v 0.1 0 0.2
v 0.1 0 0.1
v 0.2 -0.7 0.4
v 0.2 -0.7 0.3
v 0.2 -0.6 0.4
v 0.2 -0.6 0.3
v 0.2 -0.3 0.4
v 0.2 -0.3 0.3
v 0.2 -0.2 0.4
v 0.2 -0.2 0.3
v 0.2 -0.1 0.3
v 0.2 -0.1 0.2
v 0.2 0 0.3
v 0.2 0 0.2
v 0.3 -0.7 0.5
v 0.3 -0.7 0.4
v 0.3 -0.7 -0.2
v 0.3 -0.7 -0.3
v 0.3 -0.6 0.5
v 0.3 -0.6 0.4
v 0.3 -0.6 0.3
v 0.3 -0.6 -0.2
v 0.3 -0.6 -0.3
v 0.3 -0.4 0.4
v 0.3 -0.4 0.3
v 0.3 -0.4 0.2
v 0.3 -0.3 0.4
v 0.3 -0.3 0.3
v 0.3 -0.2 0.3
v 0.3 -0.2 0.2
v 0.4 -0.7 -0.1
v 0.4 -0.7 -0.2
v 0.4 -0.6 -0.1
v 0.4 -0.6 -0.2
v 0.4 -0.6 -0.3
v 0.4 -0.4 0.2
v 0.4 -0.4 0.1
v 0.4 -0.4 -0.2
v 0.4 -0.4 -0.3
v 0.4 -0.3 -0.2
v 0.4 -0.3 -0.3
v 0.4 -0.2 0.2
v 0.4 -0.2 0.1
v 0.5 -0.7 0.1
v 0.5 -0.7 -5.96046e-008
v 0.5 -0.6 0.1
v 0.5 -0.6 -5.96046e-008
v 0.5 -0.4 -0.1
v 0.5 -0.4 -0.2
v 0.5 -0.3 0.1
v 0.5 -0.3 -5.96046e-008
v 0.5 -0.3 -0.1
v 0.5 -0.3 -0.2
v 0.5 -0.2 0.1
v 0.5 -0.2 -5.96046e-008
v 0.6 -0.7 0.2
v 0.6 -0.7 0.1
v 0.6 -0.6 0.2
v 0.6 -0.6 0.1
v 0.6 -0.6 -5.96046e-008
v 0.6 -0.4 0.1
v 0.6 -0.4 -5.96046e-008
v 0.6 -0.4 -0.1
v 0.6 -0.3 0.1
v 0.6 -0.3 -5.96046e-008
v 0.6 -0.3 -0.1
v 0.6 -0.3 -0.2
v 0.6 -0.2 -5.96046e-008
v 0.6 -0.2 -0.1
v 0.6 -0.2 -0.2
v 0.7 -0.2 -0.1
v 0.7 -0.2 -0.2
v 0.7 -0.2 -0.3
v 0.7 -0.2 -0.4
v 0.7 -0.1 -0.1
v 0.7 -0.1 -0.2
v 0.7 -0.1 -0.3
v 0.7 -0.1 -0.4
v 0.8 -0.2 -0.2
v 0.8 -0.2 -0.3
v 0.8 -0.1 -0.2
v 0.8 -0.1 -0.3
v 0.9 -0.1 -0.2
v 0.9 -0.1 -0.3
v 0.9 0 -0.2
v 0.9 0 -0.3
v 1 -0.1 -0.3
v 1 -0.1 -0.4
v 1 -0.1 -0.6
v 1 0 -0.3
v 1 0 -0.4
v 1 0 -0.6
v -0.2 -0.2 0.5
v -0.2 -0.1 0.5
v -0.0999999 -0.2 0.5
v -0.0999999 -0.1 0.5
v 5.96046e-008 -0.2 0.5
v 5.96046e-008 -0.1 0.5
v 0.1 -0.7 0.5
v 0.1 -0.6 0.5
v 0.3 -0.7 0.5
v 0.3 -0.6 0.5
v -0.0999999 -0.1 0.4
v -0.0999999 0 0.4
v 5.96046e-008 -0.3 0.4
v 5.96046e-008 -0.2 0.4
v 5.96046e-008 -0.1 0.4
v 0.1 -0.2 0.4
v 0.1 0 0.4
v 0.2 -0.6 0.4
v 0.2 -0.4 0.4
v 0.2 -0.3 0.4
v 0.2 -0.2 0.4
v 0.3 -0.6 0.4
v 0.3 -0.4 0.4
v 0.3 -0.3 0.4
v -0.0999999 -0.3 0.3
v -0.0999999 -0.2 0.3
v 5.96046e-008 -0.3 0.3
v 5.96046e-008 -0.2 0.3
v 0.1 -0.4 0.3
v 0.1 -0.3 0.3
v 0.1 -0.1 0.3
v 0.1 0 0.3
v 0.2 -0.4 0.3
v 0.2 -0.3 0.3
v 0.2 -0.2 0.3
v 0.2 -0.1 0.3
v 0.2 0 0.3
v 0.3 -0.3 0.3
v 0.3 -0.2 0.3
v -0.2 -0.7 0.2
v -0.2 -0.6 0.2
v 5.96046e-008 -0.7 0.2
v 5.96046e-008 -0.6 0.2
v 5.96046e-008 -0.4 0.2
v 5.96046e-008 -0.3 0.2
v 0.1 -0.4 0.2
v 0.1 -0.3 0.2
v 0.3 -0.4 0.2
v 0.3 -0.2 0.2
v 0.4 -0.7 0.2
v 0.4 -0.6 0.2
v 0.4 -0.4 0.2
v 0.4 -0.2 0.2
v 0.6 -0.7 0.2
v 0.6 -0.6 0.2
v -0.0999999 -0.6 0.1
v -0.0999999 -0.4 0.1
v -0.0999999 -0.3 0.1
v 5.96046e-008 -0.6 0.1
v 5.96046e-008 -0.4 0.1
v 5.96046e-008 -0.3 0.1
v 0.4 -0.4 0.1
v 0.4 -0.2 0.1
v 0.5 -0.6 0.1
v 0.5 -0.4 0.1
v 0.5 -0.3 0.1
v 0.5 -0.2 0.1
v 0.6 -0.6 0.1
v 0.6 -0.4 0.1
v 0.6 -0.3 0.1
v 0.5 -0.3 -5.96046e-008
v 0.5 -0.2 -5.96046e-008
v 0.6 -0.3 -5.96046e-008
v 0.6 -0.2 -5.96046e-008
v 0.2 -0.7 -0.1
v 0.2 -0.6 -0.1
v 0.4 -0.7 -0.1
v 0.4 -0.6 -0.1
v 0.5 -0.2 -0.1
v 0.5 -0.1 -0.1
v 0.6 -0.2 -0.1
v 0.7 -0.2 -0.1
v 0.7 -0.1 -0.1
v 0.3 -0.6 -0.2
v 0.3 -0.4 -0.2
v 0.4 -0.6 -0.2
v 0.4 -0.4 -0.2
v 0.6 -0.1 -0.2
v 0.6 0 -0.2
v 0.7 -0.2 -0.2
v 0.7 -0.1 -0.2
v 0.8 -0.2 -0.2
v 0.8 -0.1 -0.2
v 0.9 -0.1 -0.2
v 0.9 0 -0.2
v 0.9 -0.1 -0.3
v 0.9 0 -0.3
v 1 -0.1 -0.3
v 1 0 -0.3
v 0.2 -0.7 0.4
v 0.2 -0.6 0.4
v 0.3 -0.7 0.4
v 0.3 -0.6 0.4
v -0.2 -0.2 0.3
v -0.2 -0.1 0.3
v -0.0999999 -0.2 0.3
v -0.0999999 -0.1 0.3
v 0.1 -0.7 0.3
v 0.1 -0.6 0.3
v 0.2 -0.7 0.3
v 0.2 -0.6 0.3
v 0.2 -0.4 0.3
v 0.3 -0.6 0.3
v 0.3 -0.4 0.3
v -0.0999999 -0.2 0.2
v -0.0999999 0 0.2
v 5.96046e-008 -0.1 0.2
v 5.96046e-008 0 0.2
v 0.1 -0.2 0.2
v 0.1 -0.1 0.2
v 0.1 0 0.2
v 0.2 -0.1 0.2
v 0.2 0 0.2
v -0.0999999 -0.7 0.1
v -0.0999999 -0.6 0.1
v -0.0999999 -0.3 0.1
v -0.0999999 -0.2 0.1
v 5.96046e-008 -0.7 0.1
v 5.96046e-008 -0.6 0.1
v 5.96046e-008 -0.3 0.1
v 5.96046e-008 -0.2 0.1
v 5.96046e-008 -0.1 0.1
v 5.96046e-008 0 0.1
v 0.1 -0.1 0.1
v 0.1 0 0.1
v 0.5 -0.7 0.1
v 0.5 -0.6 0.1
v 0.6 -0.7 0.1
v 0.6 -0.6 0.1
v -0.2 -0.7 -5.96046e-008
v -0.2 -0.6 -5.96046e-008
v -0.0999999 -0.7 -5.96046e-008
v -0.0999999 -0.6 -5.96046e-008
v -0.0999999 -0.4 -5.96046e-008
v -0.0999999 -0.3 -5.96046e-008
v 5.96046e-008 -0.6 -5.96046e-008
v 5.96046e-008 -0.4 -5.96046e-008
v 5.96046e-008 -0.3 -5.96046e-008
v 5.96046e-008 -0.2 -5.96046e-008
v 0.2 -0.4 -5.96046e-008
v 0.2 -0.2 -5.96046e-008
v 0.4 -0.7 -5.96046e-008
v 0.4 -0.6 -5.96046e-008
v 0.5 -0.7 -5.96046e-008
v 0.5 -0.6 -5.96046e-008
v 0.5 -0.4 -5.96046e-008
v 0.6 -0.6 -5.96046e-008
v 0.6 -0.4 -5.96046e-008
v 0.2 -0.4 -0.1
v 0.2 -0.2 -0.1
v 0.3 -0.4 -0.1
v 0.3 -0.2 -0.1
v 0.5 -0.4 -0.1
v 0.5 -0.3 -0.1
v 0.6 -0.4 -0.1
v 0.6 -0.3 -0.1
v 0.3 -0.7 -0.2
v 0.3 -0.6 -0.2
v 0.3 -0.3 -0.2
v 0.3 -0.2 -0.2
v 0.4 -0.7 -0.2
v 0.4 -0.6 -0.2
v 0.4 -0.4 -0.2
v 0.4 -0.3 -0.2
v 0.5 -0.4 -0.2
v 0.5 -0.3 -0.2
v 0.5 -0.2 -0.2
v 0.6 -0.3 -0.2
v 0.6 -0.2 -0.2
v 0.2 -0.7 -0.3
v 0.2 -0.6 -0.3
v 0.3 -0.7 -0.3
v 0.3 -0.6 -0.3
v 0.3 -0.4 -0.3
v 0.3 -0.3 -0.3
v 0.4 -0.6 -0.3
v 0.4 -0.4 -0.3
v 0.4 -0.3 -0.3
v 0.5 -0.2 -0.3
v 0.5 -0.1 -0.3
v 0.6 -0.2 -0.3
v 0.6 -0.1 -0.3
v 0.7 -0.2 -0.3
v 0.7 -0.1 -0.3
v 0.8 -0.2 -0.3
v 0.8 -0.1 -0.3
v 0.6 -0.2 -0.4
v 0.6 -0.1 -0.4
v 0.7 -0.2 -0.4
v 0.7 -0.1 -0.4
v 0.6 -0.1 -0.5
v 0.6 0 -0.5
v 0.7 -0.1 -0.5
v 0.7 0 -0.5
v 0.7 -0.1 -0.6
v 0.7 0 -0.6
v 0.8 -0.1 -0.6
v 0.8 0 -0.6
v 1 -0.1 -0.6
v 1 0 -0.6
v 0.1 -0.7 0.5
v 0.3 -0.7 0.5
v 0.2 -0.7 0.4
v 0.3 -0.7 0.4
v 0.1 -0.7 0.3
v 0.2 -0.7 0.3
v -0.2 -0.7 0.2
v 5.96046e-008 -0.7 0.2
v 0.4 -0.7 0.2
v 0.6 -0.7 0.2
v -0.0999999 -0.7 0.1
v 5.96046e-008 -0.7 0.1
v 0.5 -0.7 0.1
v 0.6 -0.7 0.1
v -0.2 -0.7 -5.96046e-008
v -0.0999999 -0.7 -5.96046e-008
v 0.4 -0.7 -5.96046e-008
v 0.5 -0.7 -5.96046e-008
v 0.2 -0.7 -0.1
v 0.4 -0.7 -0.1
v 0.3 -0.7 -0.2
v 0.4 -0.7 -0.2
v 0.2 -0.7 -0.3
v 0.3 -0.7 -0.3
v 0.2 -0.6 0.4
v 0.3 -0.6 0.4
v 0.2 -0.6 0.3
v 0.3 -0.6 0.3
v -0.0999999 -0.6 0.1
v 5.96046e-008 -0.6 0.1
v 0.5 -0.6 0.1
v 0.6 -0.6 0.1
v -0.0999999 -0.6 -5.96046e-008
v 5.96046e-008 -0.6 -5.96046e-008
v 0.5 -0.6 -5.96046e-008
v 0.6 -0.6 -5.96046e-008
v 0.3 -0.6 -0.2
v 0.4 -0.6 -0.2
v 0.3 -0.6 -0.3
v 0.4 -0.6 -0.3
v 0.1 -0.4 0.3
v 0.2 -0.4 0.3
v 0.3 -0.4 0.3
v 5.96046e-008 -0.4 0.2
v 0.1 -0.4 0.2
v 0.3 -0.4 0.2
v 0.4 -0.4 0.2
v 5.96046e-008 -0.4 0.1
v 0.4 -0.4 0.1
v 0.5 -0.4 0.1
v 5.96046e-008 -0.4 -5.96046e-008
v 0.2 -0.4 -5.96046e-008
v 0.5 -0.4 -5.96046e-008
v 0.6 -0.4 -5.96046e-008
v 0.2 -0.4 -0.1
v 0.3 -0.4 -0.1
v 0.5 -0.4 -0.1
v 0.6 -0.4 -0.1
v 0.3 -0.4 -0.2
v 0.4 -0.4 -0.2
v 0.5 -0.4 -0.2
v 5.96046e-008 -0.3 0.4
v 0.2 -0.3 0.4
v -0.0999999 -0.3 0.3
v 5.96046e-008 -0.3 0.3
v 0.1 -0.3 0.3
v 0.2 -0.3 0.3
v 5.96046e-008 -0.3 0.2
v 0.1 -0.3 0.2
v -0.0999999 -0.3 0.1
v 5.96046e-008 -0.3 0.1
v 0.5 -0.3 -0.1
v 0.6 -0.3 -0.1
v 0.5 -0.3 -0.2
v 0.6 -0.3 -0.2
v -0.2 -0.2 0.5
v -0.0999999 -0.2 0.5
v 5.96046e-008 -0.2 0.5
v -0.2 -0.2 0.4
v -0.0999999 -0.2 0.4
v 5.96046e-008 -0.2 0.4
v -0.2 -0.2 0.3
v -0.0999999 -0.2 0.3
v 5.96046e-008 -0.2 0.3
v 0.6 -0.2 -0.1
v 0.7 -0.2 -0.1
v 0.5 -0.2 -0.2
v 0.6 -0.2 -0.2
v 0.7 -0.2 -0.2
v 0.8 -0.2 -0.2
v 0.5 -0.2 -0.3
v 0.6 -0.2 -0.3
v 0.7 -0.2 -0.3
v 0.8 -0.2 -0.3
v 0.6 -0.2 -0.4
v 0.7 -0.2 -0.4
v 0.1 -0.1 0.3
v 0.2 -0.1 0.3
v 5.96046e-008 -0.1 0.2
v 0.1 -0.1 0.2
v 0.2 -0.1 0.2
v 5.96046e-008 -0.1 0.1
v 0.1 -0.1 0.1
v 0.8 -0.1 -0.2
v 0.9 -0.1 -0.2
v 0.7 -0.1 -0.3
v 0.8 -0.1 -0.3
v 0.9 -0.1 -0.3
v 1 -0.1 -0.3
v 0.6 -0.1 -0.4
v 0.7 -0.1 -0.4
v 0.8 -0.1 -0.4
v 1 -0.1 -0.4
v 0.6 -0.1 -0.5
v 0.7 -0.1 -0.5
v 0.7 -0.1 -0.6
v 0.8 -0.1 -0.6
v 1 -0.1 -0.6
v 0.1 -0.6 0.5
v 0.3 -0.6 0.5
v 0.2 -0.6 0.4
v 0.3 -0.6 0.4
v 0.1 -0.6 0.3
v 0.2 -0.6 0.3
v -0.2 -0.6 0.2
v 5.96046e-008 -0.6 0.2
v 0.4 -0.6 0.2
v 0.6 -0.6 0.2
v -0.0999999 -0.6 0.1
v 5.96046e-008 -0.6 0.1
v 0.5 -0.6 0.1
v 0.6 -0.6 0.1
v -0.2 -0.6 -5.96046e-008
v -0.0999999 -0.6 -5.96046e-008
v 0.4 -0.6 -5.96046e-008
v 0.5 -0.6 -5.96046e-008
v 0.2 -0.6 -0.1
v 0.4 -0.6 -0.1
v 0.3 -0.6 -0.2
v 0.4 -0.6 -0.2
v 0.2 -0.6 -0.3
v 0.3 -0.6 -0.3
v 0.2 -0.3 0.4
v 0.3 -0.3 0.4
v 0.2 -0.3 0.3
v 0.3 -0.3 0.3
v -0.0999999 -0.3 0.1
v 5.96046e-008 -0.3 0.1
v 0.5 -0.3 0.1
v 0.6 -0.3 0.1
v -0.0999999 -0.3 -5.96046e-008
v 5.96046e-008 -0.3 -5.96046e-008
v 0.5 -0.3 -5.96046e-008
v 0.6 -0.3 -5.96046e-008
v 0.3 -0.3 -0.2
v 0.4 -0.3 -0.2
v 0.3 -0.3 -0.3
v 0.4 -0.3 -0.3
v 0.1 -0.2 0.4
v 0.2 -0.2 0.4
v 0.2 -0.2 0.3
v 0.3 -0.2 0.3
v -0.0999999 -0.2 0.2
v 0.1 -0.2 0.2
v 0.3 -0.2 0.2
v 0.4 -0.2 0.2
v -0.0999999 -0.2 0.1
v 5.96046e-008 -0.2 0.1
v 0.4 -0.2 0.1
v 0.5 -0.2 0.1
v 5.96046e-008 -0.2 -5.96046e-008
v 0.2 -0.2 -5.96046e-008
v 0.5 -0.2 -5.96046e-008
v 0.6 -0.2 -5.96046e-008
v 0.2 -0.2 -0.1
v 0.3 -0.2 -0.1
v 0.5 -0.2 -0.1
v 0.6 -0.2 -0.1
v 0.3 -0.2 -0.2
v 0.5 -0.2 -0.2
v -0.2 -0.1 0.5
v -0.0999999 -0.1 0.5
v 5.96046e-008 -0.1 0.5
v -0.2 -0.1 0.4
v -0.0999999 -0.1 0.4
v 5.96046e-008 -0.1 0.4
v -0.2 -0.1 0.3
v -0.0999999 -0.1 0.3
v 0.5 -0.1 -0.1
v 0.7 -0.1 -0.1
v 0.6 -0.1 -0.2
v 0.7 -0.1 -0.2
v 0.5 -0.1 -0.3
v 0.6 -0.1 -0.3
v -0.0999999 0 0.4
v 0.1 0 0.4
v 0.1 0 0.3
v 0.2 0 0.3
v -0.0999999 0 0.2
v 5.96046e-008 0 0.2
v 0.1 0 0.2
v 0.2 0 0.2
v 5.96046e-008 0 0.1
v 0.1 0 0.1
v 0.6 0 -0.2
v 0.9 0 -0.2
v 0.9 0 -0.3
v 1 0 -0.3
v 0.8 0 -0.4
v 1 0 -0.4
v 0.6 0 -0.5
v 0.7 0 -0.5
v 0.7 0 -0.6
v 0.8 0 -0.6
v 1 0 -0.6

# faces
f 3/1/1 2/1/1 1/1/1
f 4/1/1 2/1/1 3/1/1
f 8/1/1 6/1/1 5/1/1
f 9/2/1 7/2/1 6/2/1
f 9/1/1 6/1/1 8/1/1
f 10/2/1 7/2/1 9/2/1
f 13/1/1 12/1/1 11/1/1
f 14/1/1 12/1/1 13/1/1
f 16/2/1 14/2/1 13/2/1
f 17/2/1 14/2/1 16/2/1
f 18/2/1 16/2/1 15/2/1
f 19/2/1 16/2/1 18/2/1
f 20/2/1 16/2/1 19/2/1
f 22/2/1 19/2/1 18/2/1
f 23/2/1 22/2/1 21/2/1
f 24/2/1 19/2/1 22/2/1
f 24/2/1 22/2/1 23/2/1
f 29/2/1 26/2/1 25/2/1
f 30/2/1 26/2/1 29/2/1
f 32/2/1 28/2/1 27/2/1
f 33/2/1 28/2/1 32/2/1
f 34/2/1 31/2/1 30/2/1
f 35/2/1 31/2/1 34/2/1
f 38/2/1 37/2/1 36/2/1
f 39/2/1 37/2/1 38/2/1
f 42/1/1 41/1/1 40/1/1
f 43/1/1 41/1/1 42/1/1
f 46/2/1 45/2/1 44/2/1
f 47/2/1 45/2/1 46/2/1
f 52/1/1 49/1/1 48/1/1
f 53/1/1 49/1/1 52/1/1
f 54/1/1 51/1/1 50/1/1
f 55/1/1 51/1/1 54/1/1
f 58/2/1 55/2/1 54/2/1
f 59/2/1 55/2/1 58/2/1
f 60/2/1 57/2/1 56/2/1
f 61/2/1 57/2/1 60/2/1
f 65/1/1 63/1/1 62/1/1
f 66/1/1 63/1/1 65/1/1
f 67/2/1 65/2/1 64/2/1
f 67/2/1 66/2/1 65/2/1
f 68/2/1 66/2/1 67/2/1
f 69/2/1 67/2/1 64/2/1
f 70/2/1 67/2/1 69/2/1
f 73/1/1 72/1/1 71/1/1
f 74/1/1 72/1/1 73/1/1
f 77/1/1 76/1/1 75/1/1
f 78/1/1 76/1/1 77/1/1
f 82/2/1 80/2/1 79/2/1
f 82/2/1 81/2/1 80/2/1
f 83/2/1 81/2/1 82/2/1
f 87/2/1 85/2/1 84/2/1
f 88/2/1 85/2/1 87/2/1
f 90/2/1 87/2/1 86/2/1
f 90/2/1 89/2/1 88/2/1
f 90/2/1 88/2/1 87/2/1
f 91/2/1 89/2/1 90/2/1
f 94/2/1 93/2/1 92/2/1
f 95/2/1 93/2/1 94/2/1
f 96/1/2 97/1/2 98/1/2
f 98/1/2 97/1/2 99/1/2
f 100/1/2 101/1/2 102/1/2
f 102/1/2 101/1/2 103/1/2
f 103/1/2 104/1/2 105/1/2
f 105/1/2 104/1/2 106/1/2
f 107/2/2 108/2/2 109/2/2
f 109/2/2 108/2/2 110/2/2
f 111/2/2 112/2/2 113/2/2
f 113/2/2 112/2/2 114/2/2
f 111/2/2 113/2/2 116/2/2
f 116/2/2 113/2/2 117/2/2
f 114/2/2 115/2/2 118/2/2
f 118/2/2 115/2/2 119/2/2
f 120/1/2 121/1/2 122/1/2
f 122/1/2 121/1/2 123/1/2
f 124/2/2 125/2/2 126/2/2
f 126/2/2 125/2/2 127/2/2
f 128/2/2 129/2/2 130/2/2
f 130/2/2 129/2/2 131/2/2
f 132/1/2 133/1/2 136/1/2
f 136/1/2 133/1/2 137/1/2
f 134/1/2 135/1/2 139/1/2
f 139/1/2 135/1/2 140/1/2
f 137/1/2 138/1/2 141/1/2
f 141/1/2 138/1/2 142/1/2
f 141/2/2 142/2/2 144/2/2
f 142/2/2 143/2/2 144/2/2
f 144/2/2 143/2/2 145/2/2
f 145/2/2 143/2/2 146/2/2
f 146/2/2 143/2/2 147/2/2
f 148/1/2 149/1/2 150/1/2
f 150/1/2 149/1/2 151/1/2
f 151/1/2 152/1/2 155/1/2
f 155/1/2 152/1/2 156/1/2
f 155/2/2 156/2/2 157/2/2
f 157/2/2 156/2/2 158/2/2
f 153/2/2 154/2/2 159/2/2
f 159/2/2 154/2/2 160/2/2
f 161/1/2 162/1/2 163/1/2
f 163/1/2 162/1/2 164/1/2
f 165/2/2 166/2/2 169/2/2
f 169/2/2 166/2/2 170/2/2
f 167/2/2 168/2/2 171/2/2
f 171/2/2 168/2/2 172/2/2
f 173/1/2 174/1/2 175/1/2
f 175/1/2 174/1/2 176/1/2
f 176/1/2 177/1/2 178/1/2
f 178/1/2 177/1/2 179/1/2
f 178/2/2 179/2/2 181/2/2
f 179/2/2 180/2/2 181/2/2
f 181/2/2 180/2/2 182/2/2
f 182/2/2 180/2/2 183/2/2
f 183/2/2 184/2/2 185/2/2
f 182/2/2 183/2/2 185/2/2
f 185/2/2 184/2/2 186/2/2
f 186/2/2 184/2/2 187/2/2
f 188/2/2 189/2/2 192/2/2
f 192/2/2 189/2/2 193/2/2
f 190/2/2 191/2/2 194/2/2
f 194/2/2 191/2/2 195/2/2
f 196/2/2 197/2/2 198/2/2
f 198/2/2 197/2/2 199/2/2
f 200/2/2 201/2/2 202/2/2
f 202/2/2 201/2/2 203/2/2
f 204/2/2 205/2/2 207/2/2
f 205/3/2 206/3/2 208/3/2
f 207/2/2 205/2/2 208/2/2
f 208/3/2 206/3/2 209/3/2
f 212/1/3 211/1/3 210/1/3
f 213/1/3 211/1/3 212/1/3
f 214/2/3 213/2/3 212/2/3
f 215/2/3 213/2/3 214/2/3
f 218/1/3 217/1/3 216/1/3
f 219/1/3 217/1/3 218/1/3
f 224/2/3 221/2/3 220/2/3
f 225/2/3 223/2/3 222/2/3
f 225/2/3 224/2/3 223/2/3
f 226/2/3 221/2/3 224/2/3
f 226/2/3 224/2/3 225/2/3
f 229/2/3 225/2/3 222/2/3
f 230/2/3 225/2/3 229/2/3
f 231/1/3 228/1/3 227/1/3
f 232/2/3 229/2/3 228/2/3
f 232/1/3 228/1/3 231/1/3
f 233/2/3 229/2/3 232/2/3
f 236/2/3 235/2/3 234/2/3
f 237/2/3 235/2/3 236/2/3
f 242/2/3 239/2/3 238/2/3
f 243/2/3 239/2/3 242/2/3
f 245/2/3 241/2/3 240/2/3
f 246/2/3 241/2/3 245/2/3
f 247/2/3 244/2/3 243/2/3
f 248/2/3 244/2/3 247/2/3
f 251/1/3 250/1/3 249/1/3
f 252/1/3 250/1/3 251/1/3
f 255/2/3 254/2/3 253/2/3
f 256/2/3 254/2/3 255/2/3
f 261/2/3 258/2/3 257/2/3
f 262/2/3 258/2/3 261/2/3
f 263/1/3 260/1/3 259/1/3
f 264/1/3 260/1/3 263/1/3
f 268/1/3 266/1/3 265/1/3
f 269/2/3 267/2/3 266/2/3
f 269/1/3 266/1/3 268/1/3
f 270/2/3 267/2/3 269/2/3
f 274/2/3 272/2/3 271/2/3
f 275/2/3 272/2/3 274/2/3
f 276/2/3 272/2/3 275/2/3
f 277/1/3 274/1/3 273/1/3
f 278/2/3 275/2/3 274/2/3
f 278/1/3 274/1/3 277/1/3
f 279/2/3 275/2/3 278/2/3
f 282/2/3 281/2/3 280/2/3
f 283/2/3 281/2/3 282/2/3
f 286/1/3 285/1/3 284/1/3
f 287/1/3 285/1/3 286/1/3
f 290/2/3 289/2/3 288/2/3
f 291/2/3 289/2/3 290/2/3
f 292/2/3 289/2/3 291/2/3
f 295/1/3 294/1/3 293/1/3
f 296/1/3 294/1/3 295/1/3
f 300/2/3 298/2/3 297/2/3
f 301/2/3 300/2/3 299/2/3
f 302/2/3 298/2/3 300/2/3
f 302/2/3 300/2/3 301/2/3
f 303/2/3 298/2/3 302/2/3
f 304/2/3 298/2/3 303/2/3
f 307/2/3 306/2/3 305/2/3
f 308/2/3 306/2/3 307/2/3
f 309/1/4 310/1/4 311/1/4
f 311/1/4 310/1/4 312/1/4
f 313/2/4 314/2/4 315/2/4
f 315/2/4 314/2/4 316/2/4
f 317/1/4 318/1/4 319/1/4
f 319/1/4 318/1/4 320/1/4
f 320/1/4 321/1/4 322/1/4
f 322/1/4 321/1/4 323/1/4
f 324/2/4 325/2/4 326/2/4
f 326/2/4 325/2/4 327/2/4
f 324/2/4 326/2/4 328/2/4
f 328/2/4 326/2/4 329/2/4
f 329/2/4 330/2/4 331/2/4
f 331/2/4 330/2/4 332/2/4
f 333/1/4 334/1/4 337/1/4
f 337/1/4 334/1/4 338/1/4
f 335/2/4 336/2/4 339/2/4
f 339/2/4 336/2/4 340/2/4
f 341/2/4 342/2/4 343/2/4
f 343/2/4 342/2/4 344/2/4
f 345/1/4 346/1/4 347/1/4
f 347/1/4 346/1/4 348/1/4
f 349/1/4 350/1/4 351/1/4
f 351/1/4 350/1/4 352/1/4
f 352/1/4 353/1/4 355/1/4
f 353/2/4 354/2/4 356/2/4
f 355/1/4 353/1/4 356/1/4
f 356/2/4 354/2/4 357/2/4
f 357/2/4 358/2/4 359/2/4
f 356/2/4 357/2/4 359/2/4
f 359/2/4 358/2/4 360/2/4
f 361/1/4 362/1/4 363/1/4
f 363/1/4 362/1/4 364/1/4
f 364/1/4 365/1/4 366/1/4
f 366/1/4 365/1/4 367/1/4
f 368/2/4 369/2/4 370/2/4
f 370/2/4 369/2/4 371/2/4
f 372/2/4 373/2/4 374/2/4
f 374/2/4 373/2/4 375/2/4
f 376/1/4 377/1/4 380/1/4
f 380/1/4 377/1/4 381/1/4
f 378/2/4 379/2/4 383/2/4
f 382/2/4 383/2/4 384/2/4
f 383/2/4 379/2/4 385/2/4
f 384/2/4 383/2/4 385/2/4
f 385/2/4 379/2/4 386/2/4
f 385/2/4 386/2/4 387/2/4
f 387/2/4 386/2/4 388/2/4
f 389/1/4 390/1/4 391/1/4
f 391/1/4 390/1/4 392/1/4
f 392/1/4 393/1/4 395/1/4
f 393/2/4 394/2/4 396/2/4
f 395/1/4 393/1/4 396/1/4
f 396/2/4 394/2/4 397/2/4
f 398/2/4 399/2/4 400/2/4
f 400/2/4 399/2/4 401/2/4
f 402/2/4 403/2/4 404/2/4
f 404/2/4 403/2/4 405/2/4
f 406/2/4 407/2/4 408/2/4
f 408/2/4 407/2/4 409/2/4
f 410/2/4 411/2/4 412/2/4
f 412/2/4 411/2/4 413/2/4
f 414/2/4 415/2/4 416/2/4
f 416/2/4 415/2/4 417/2/4
f 416/3/4 417/3/4 418/3/4
f 418/3/4 417/3/4 419/3/4
f 422/1/5 421/1/5 420/1/5
f 423/1/5 421/1/5 422/1/5
f 424/1/5 422/1/5 420/1/5
f 425/1/5 422/1/5 424/1/5
f 430/1/5 427/1/5 426/1/5
f 431/1/5 427/1/5 430/1/5
f 432/1/5 429/1/5 428/1/5
f 433/1/5 429/1/5 432/1/5
f 434/1/5 430/1/5 426/1/5
f 435/1/5 430/1/5 434/1/5
f 436/1/5 432/1/5 428/1/5
f 437/1/5 432/1/5 436/1/5
f 440/1/5 439/1/5 438/1/5
f 441/1/5 439/1/5 440/1/5
f 442/1/5 440/1/5 438/1/5
f 443/1/5 440/1/5 442/1/5
f 446/1/5 445/1/5 444/1/5
f 447/1/5 445/1/5 446/1/5
f 452/1/5 449/1/5 448/1/5
f 453/1/5 449/1/5 452/1/5
f 454/1/5 451/1/5 450/1/5
f 455/1/5 451/1/5 454/1/5
f 458/1/5 457/1/5 456/1/5
f 459/1/5 457/1/5 458/1/5
f 464/2/5 461/2/5 460/2/5
f 464/2/5 462/2/5 461/2/5
f 465/2/5 462/2/5 464/2/5
f 467/2/5 464/2/5 463/2/5
f 467/2/5 466/2/5 465/2/5
f 467/2/5 465/2/5 464/2/5
f 468/2/5 466/2/5 467/2/5
f 470/2/5 468/2/5 467/2/5
f 470/2/5 469/2/5 468/2/5
f 471/2/5 469/2/5 470/2/5
f 472/2/5 469/2/5 471/2/5
f 474/2/5 473/2/5 472/2/5
f 474/2/5 472/2/5 471/2/5
f 475/2/5 473/2/5 474/2/5
f 476/2/5 473/2/5 475/2/5
f 477/2/5 473/2/5 476/2/5
f 478/2/5 476/2/5 475/2/5
f 479/2/5 476/2/5 478/2/5
f 480/2/5 476/2/5 479/2/5
f 484/2/5 482/2/5 481/2/5
f 485/2/5 482/2/5 484/2/5
f 486/2/5 482/2/5 485/2/5
f 487/2/5 484/2/5 483/2/5
f 487/2/5 485/2/5 484/2/5
f 488/2/5 485/2/5 487/2/5
f 489/2/5 487/2/5 483/2/5
f 490/2/5 487/2/5 489/2/5
f 493/2/5 492/2/5 491/2/5
f 494/2/5 492/2/5 493/2/5
f 498/1/5 496/1/5 495/1/5
f 499/2/5 497/2/5 496/2/5
f 499/1/5 496/1/5 498/1/5
f 500/2/5 497/2/5 499/2/5
f 501/2/5 499/2/5 498/2/5
f 501/2/5 500/2/5 499/2/5
f 502/2/5 500/2/5 501/2/5
f 503/2/5 500/2/5 502/2/5
f 507/2/5 505/2/5 504/2/5
f 508/2/5 505/2/5 507/2/5
f 510/2/5 507/2/5 506/2/5
f 510/2/5 509/2/5 508/2/5
f 510/2/5 508/2/5 507/2/5
f 511/2/5 509/2/5 510/2/5
f 512/2/5 509/2/5 511/2/5
f 513/2/5 509/2/5 512/2/5
f 514/2/5 512/2/5 511/2/5
f 515/2/5 512/2/5 514/2/5
f 519/2/5 517/2/5 516/2/5
f 520/2/5 517/2/5 519/2/5
f 521/2/5 519/2/5 518/2/5
f 522/2/5 519/2/5 521/2/5
f 526/2/5 524/2/5 523/2/5
f 527/2/5 524/2/5 526/2/5
f 530/2/5 526/2/5 525/2/5
f 530/2/5 528/2/5 527/2/5
f 530/2/5 527/2/5 526/2/5
f 531/2/5 528/2/5 530/2/5
f 532/2/5 528/2/5 531/2/5
f 533/2/5 530/2/5 529/2/5
f 533/2/5 531/2/5 530/2/5
f 534/2/5 531/2/5 533/2/5
f 535/2/5 531/2/5 534/2/5
f 536/3/5 532/3/5 531/3/5
f 536/2/5 531/2/5 535/2/5
f 537/3/5 532/3/5 536/3/5
f 538/1/6 539/1/6 540/1/6
f 540/1/6 539/1/6 541/1/6
f 538/1/6 540/1/6 542/1/6
f 542/1/6 540/1/6 543/1/6
f 544/1/6 545/1/6 548/1/6
f 548/1/6 545/1/6 549/1/6
f 546/1/6 547/1/6 550/1/6
f 550/1/6 547/1/6 551/1/6
f 544/1/6 548/1/6 552/1/6
f 552/1/6 548/1/6 553/1/6
f 546/1/6 550/1/6 554/1/6
f 554/1/6 550/1/6 555/1/6
f 556/1/6 557/1/6 558/1/6
f 558/1/6 557/1/6 559/1/6
f 556/1/6 558/1/6 560/1/6
f 560/1/6 558/1/6 561/1/6
f 562/2/6 563/2/6 564/2/6
f 564/2/6 563/2/6 565/2/6
f 566/2/6 567/2/6 570/2/6
f 570/2/6 567/2/6 571/2/6
f 568/2/6 569/2/6 572/2/6
f 572/2/6 569/2/6 573/2/6
f 574/2/6 575/2/6 576/2/6
f 576/2/6 575/2/6 577/2/6
f 578/2/6 579/2/6 580/2/6
f 578/2/6 580/2/6 583/2/6
f 580/2/6 581/2/6 583/2/6
f 583/2/6 581/2/6 584/2/6
f 582/2/6 583/2/6 586/2/6
f 584/2/6 585/2/6 586/2/6
f 583/2/6 584/2/6 586/2/6
f 586/2/6 585/2/6 587/2/6
f 587/2/6 585/2/6 588/2/6
f 588/2/6 589/2/6 590/2/6
f 587/2/6 588/2/6 590/2/6
f 590/2/6 589/2/6 591/2/6
f 591/2/6 589/2/6 592/2/6
f 592/2/6 593/2/6 594/2/6
f 591/2/6 592/2/6 594/2/6
f 594/2/6 593/2/6 595/2/6
f 595/2/6 593/2/6 596/2/6
f 596/2/6 593/2/6 597/2/6
f 595/2/6 596/2/6 598/2/6
f 598/2/6 596/2/6 599/2/6
f 600/1/6 601/1/6 603/1/6
f 601/2/6 602/2/6 604/2/6
f 603/1/6 601/1/6 604/1/6
f 604/2/6 602/2/6 605/2/6
f 603/2/6 604/2/6 606/2/6
f 606/2/6 604/2/6 607/2/6
f 608/2/6 609/2/6 610/2/6
f 610/2/6 609/2/6 611/2/6
f 608/2/6 610/2/6 612/2/6
f 612/2/6 610/2/6 613/2/6
f 614/2/6 615/2/6 616/2/6
f 614/2/6 616/2/6 618/2/6
f 616/2/6 617/2/6 618/2/6
f 618/2/6 617/2/6 619/2/6
f 619/2/6 617/2/6 620/2/6
f 620/2/6 617/2/6 621/2/6
f 619/2/6 620/2/6 622/2/6
f 622/2/6 620/2/6 623/2/6
f 624/2/6 625/2/6 626/2/6
f 624/2/6 626/2/6 628/2/6
f 626/2/6 627/2/6 628/2/6
f 628/2/6 627/2/6 629/2/6
f 624/2/6 628/2/6 630/2/6
f 630/2/6 628/2/6 631/2/6
f 631/2/6 628/2/6 632/2/6
f 628/3/6 629/3/6 633/3/6
f 632/2/6 628/2/6 633/2/6
f 633/3/6 629/3/6 634/3/6
