# MagicaVoxel @ Ephtracy

# group
o 

# material
mtllib Squirrel.mtl
usemtl palette

# normals
vn -1 0 0
vn 1 0 0
vn 0 0 1
vn 0 0 -1
vn 0 -1 0
vn 0 1 0

# texcoords
vt 0.0136719 0.5
vt 0.0175781 0.5
vt 0.0253906 0.5

# verts
v -0.4 -0.5 -0.1
v -0.4 -0.5 -0.2
v -0.4 -0.4 -0.1
v -0.4 -0.4 -0.2
v -0.3 -0.7 -3.72529e-008
v -0.3 -0.7 -0.1
v -0.3 -0.7 -0.2
v -0.3 -0.7 -0.3
v -0.3 -0.6 -3.72529e-008
v -0.3 -0.6 -0.1
v -0.3 -0.6 -0.2
v -0.3 -0.6 -0.3
v -0.3 -0.5 -0.1
v -0.3 -0.5 -0.2
v -0.2 -0.6 -3.72529e-008
v -0.2 -0.6 -0.1
v -0.2 -0.6 -0.2
v -0.2 -0.6 -0.3
v -0.2 -0.5 -3.72529e-008
v -0.2 -0.5 -0.1
v -0.2 -0.5 -0.2
v -0.2 -0.5 -0.3
v 0 -0.7 -3.72529e-008
v 0 -0.7 -0.1
v 0 -0.7 -0.2
v 0 -0.7 -0.3
v 0 -0.6 -3.72529e-008
v 0 -0.6 -0.1
v 0 -0.6 -0.2
v 0 -0.6 -0.3
v 0 -0.5 -3.72529e-008
v 0 -0.5 -0.1
v 0 -0.5 -0.2
v 0 -0.5 -0.3
v 0 -0.4 -3.72529e-008
v 0 -0.4 -0.1
v 0 -0.4 -0.2
v 0 -0.4 -0.3
v 0.1 -0.4 -3.72529e-008
v 0.1 -0.4 -0.1
v 0.1 -0.4 -0.2
v 0.1 -0.4 -0.3
v 0.1 -0.3 -3.72529e-008
v 0.1 -0.3 -0.1
v 0.1 -0.3 -0.2
v 0.1 -0.3 -0.3
v -0.3 -0.5 -0.1
v -0.3 -0.5 -0.2
v -0.3 -0.4 -0.1
v -0.3 -0.4 -0.2
v -0.2 -0.7 -3.72529e-008
v -0.2 -0.7 -0.1
v -0.2 -0.7 -0.2
v -0.2 -0.7 -0.3
v -0.2 -0.6 -3.72529e-008
v -0.2 -0.6 -0.1
v -0.2 -0.6 -0.2
v -0.2 -0.6 -0.3
v 0 -0.6 -3.72529e-008
v 0 -0.6 -0.1
v 0 -0.6 -0.2
v 0 -0.6 -0.3
v 0 -0.5 -3.72529e-008
v 0 -0.5 -0.1
v 0 -0.5 -0.2
v 0 -0.5 -0.3
v 0.1 -0.7 -3.72529e-008
v 0.1 -0.7 -0.1
v 0.1 -0.7 -0.2
v 0.1 -0.7 -0.3
v 0.1 -0.6 -3.72529e-008
v 0.1 -0.6 -0.1
v 0.1 -0.6 -0.2
v 0.1 -0.6 -0.3
v 0.1 -0.5 -3.72529e-008
v 0.1 -0.5 -0.1
v 0.1 -0.5 -0.2
v 0.1 -0.5 -0.3
v 0.1 -0.4 -3.72529e-008
v 0.1 -0.4 -0.1
v 0.1 -0.4 -0.2
v 0.1 -0.4 -0.3
v 0.3 -0.4 -3.72529e-008
v 0.3 -0.4 -0.1
v 0.3 -0.4 -0.2
v 0.3 -0.4 -0.3
v 0.3 -0.3 -3.72529e-008
v 0.3 -0.3 -0.1
v 0.3 -0.3 -0.2
v 0.3 -0.3 -0.3
v -0.3 -0.7 -3.72529e-008
v -0.3 -0.6 -3.72529e-008
v -0.2 -0.7 -3.72529e-008
v -0.2 -0.6 -3.72529e-008
v -0.2 -0.5 -3.72529e-008
v 0 -0.7 -3.72529e-008
v 0 -0.6 -3.72529e-008
v 0 -0.5 -3.72529e-008
v 0 -0.4 -3.72529e-008
v 0.1 -0.7 -3.72529e-008
v 0.1 -0.6 -3.72529e-008
v 0.1 -0.5 -3.72529e-008
v 0.1 -0.4 -3.72529e-008
v 0.1 -0.3 -3.72529e-008
v 0.3 -0.4 -3.72529e-008
v 0.3 -0.3 -3.72529e-008
v -0.4 -0.5 -0.1
v -0.4 -0.4 -0.1
v -0.3 -0.6 -0.1
v -0.3 -0.5 -0.1
v -0.3 -0.4 -0.1
v -0.2 -0.6 -0.1
v -0.2 -0.5 -0.1
v -0.3 -0.7 -0.2
v -0.3 -0.6 -0.2
v -0.2 -0.7 -0.2
v -0.2 -0.6 -0.2
v 0 -0.7 -0.2
v 0 -0.6 -0.2
v 0.1 -0.7 -0.2
v 0.1 -0.6 -0.2
v -0.3 -0.7 -0.1
v -0.3 -0.6 -0.1
v -0.2 -0.7 -0.1
v -0.2 -0.6 -0.1
v 0 -0.7 -0.1
v 0 -0.6 -0.1
v 0.1 -0.7 -0.1
v 0.1 -0.6 -0.1
v -0.4 -0.5 -0.2
v -0.4 -0.4 -0.2
v -0.3 -0.6 -0.2
v -0.3 -0.5 -0.2
v -0.3 -0.4 -0.2
v -0.2 -0.6 -0.2
v -0.2 -0.5 -0.2
v -0.3 -0.7 -0.3
v -0.3 -0.6 -0.3
v -0.2 -0.7 -0.3
v -0.2 -0.6 -0.3
v -0.2 -0.5 -0.3
v 0 -0.7 -0.3
v 0 -0.6 -0.3
v 0 -0.5 -0.3
v 0 -0.4 -0.3
v 0.1 -0.7 -0.3
v 0.1 -0.6 -0.3
v 0.1 -0.5 -0.3
v 0.1 -0.4 -0.3
v 0.1 -0.3 -0.3
v 0.3 -0.4 -0.3
v 0.3 -0.3 -0.3
v -0.3 -0.7 -3.72529e-008
v -0.2 -0.7 -3.72529e-008
v 0 -0.7 -3.72529e-008
v 0.1 -0.7 -3.72529e-008
v -0.3 -0.7 -0.1
v -0.2 -0.7 -0.1
v 0 -0.7 -0.1
v 0.1 -0.7 -0.1
v -0.3 -0.7 -0.2
v -0.2 -0.7 -0.2
v 0 -0.7 -0.2
v 0.1 -0.7 -0.2
v -0.3 -0.7 -0.3
v -0.2 -0.7 -0.3
v 0 -0.7 -0.3
v 0.1 -0.7 -0.3
v -0.2 -0.6 -3.72529e-008
v 0 -0.6 -3.72529e-008
v -0.3 -0.6 -0.1
v -0.2 -0.6 -0.1
v 0 -0.6 -0.1
v -0.3 -0.6 -0.2
v -0.2 -0.6 -0.2
v 0 -0.6 -0.2
v -0.2 -0.6 -0.3
v 0 -0.6 -0.3
v 0 -0.5 -3.72529e-008
v 0.1 -0.5 -3.72529e-008
v -0.4 -0.5 -0.1
v -0.3 -0.5 -0.1
v 0 -0.5 -0.1
v 0.1 -0.5 -0.1
v -0.4 -0.5 -0.2
v -0.3 -0.5 -0.2
v 0 -0.5 -0.2
v 0.1 -0.5 -0.2
v 0 -0.5 -0.3
v 0.1 -0.5 -0.3
v 0.1 -0.4 -3.72529e-008
v 0.3 -0.4 -3.72529e-008
v 0.1 -0.4 -0.1
v 0.3 -0.4 -0.1
v 0.1 -0.4 -0.2
v 0.3 -0.4 -0.2
v 0.1 -0.4 -0.3
v 0.3 -0.4 -0.3
v -0.3 -0.6 -3.72529e-008
v -0.2 -0.6 -3.72529e-008
v 0 -0.6 -3.72529e-008
v 0.1 -0.6 -3.72529e-008
v -0.3 -0.6 -0.1
v -0.2 -0.6 -0.1
v 0 -0.6 -0.1
v 0.1 -0.6 -0.1
v -0.3 -0.6 -0.2
v -0.2 -0.6 -0.2
v 0 -0.6 -0.2
v 0.1 -0.6 -0.2
v -0.3 -0.6 -0.3
v -0.2 -0.6 -0.3
v 0 -0.6 -0.3
v 0.1 -0.6 -0.3
v -0.2 -0.5 -3.72529e-008
v 0 -0.5 -3.72529e-008
v -0.3 -0.5 -0.1
v -0.2 -0.5 -0.1
v 0 -0.5 -0.1
v -0.3 -0.5 -0.2
v -0.2 -0.5 -0.2
v 0 -0.5 -0.2
v -0.2 -0.5 -0.3
v 0 -0.5 -0.3
v 0 -0.4 -3.72529e-008
v 0.1 -0.4 -3.72529e-008
v -0.4 -0.4 -0.1
v -0.3 -0.4 -0.1
v 0 -0.4 -0.1
v 0.1 -0.4 -0.1
v -0.4 -0.4 -0.2
v -0.3 -0.4 -0.2
v 0 -0.4 -0.2
v 0.1 -0.4 -0.2
v 0 -0.4 -0.3
v 0.1 -0.4 -0.3
v 0.1 -0.3 -3.72529e-008
v 0.3 -0.3 -3.72529e-008
v 0.1 -0.3 -0.1
v 0.3 -0.3 -0.1
v 0.1 -0.3 -0.2
v 0.3 -0.3 -0.2
v 0.1 -0.3 -0.3
v 0.3 -0.3 -0.3

# faces
f 3/2/1 2/2/1 1/2/1
f 4/2/1 2/2/1 3/2/1
f 9/3/1 6/3/1 5/3/1
f 10/3/1 6/3/1 9/3/1
f 11/3/1 8/3/1 7/3/1
f 12/3/1 8/3/1 11/3/1
f 13/1/1 11/1/1 10/1/1
f 14/1/1 11/1/1 13/1/1
f 19/1/1 16/1/1 15/1/1
f 20/1/1 16/1/1 19/1/1
f 21/1/1 18/1/1 17/1/1
f 22/1/1 18/1/1 21/1/1
f 27/3/1 24/3/1 23/3/1
f 28/3/1 24/3/1 27/3/1
f 29/3/1 26/3/1 25/3/1
f 30/3/1 26/3/1 29/3/1
f 35/1/1 32/1/1 31/1/1
f 36/2/1 33/2/1 32/2/1
f 36/1/1 32/1/1 35/1/1
f 37/1/1 34/1/1 33/1/1
f 37/2/1 33/2/1 36/2/1
f 38/1/1 34/1/1 37/1/1
f 43/1/1 40/1/1 39/1/1
f 44/2/1 41/2/1 40/2/1
f 44/1/1 40/1/1 43/1/1
f 45/1/1 42/1/1 41/1/1
f 45/2/1 41/2/1 44/2/1
f 46/1/1 42/1/1 45/1/1
f 47/2/2 48/2/2 49/2/2
f 49/2/2 48/2/2 50/2/2
f 51/3/2 52/3/2 55/3/2
f 55/3/2 52/3/2 56/3/2
f 53/3/2 54/3/2 57/3/2
f 57/3/2 54/3/2 58/3/2
f 59/1/2 60/1/2 63/1/2
f 60/2/2 61/2/2 64/2/2
f 63/1/2 60/1/2 64/1/2
f 61/1/2 62/1/2 65/1/2
f 64/2/2 61/2/2 65/2/2
f 65/1/2 62/1/2 66/1/2
f 67/3/2 68/3/2 71/3/2
f 71/3/2 68/3/2 72/3/2
f 69/3/2 70/3/2 73/3/2
f 73/3/2 70/3/2 74/3/2
f 75/1/2 76/1/2 79/1/2
f 76/2/2 77/2/2 80/2/2
f 79/1/2 76/1/2 80/1/2
f 77/1/2 78/1/2 81/1/2
f 80/2/2 77/2/2 81/2/2
f 81/1/2 78/1/2 82/1/2
f 83/1/2 84/1/2 87/1/2
f 84/2/2 85/2/2 88/2/2
f 87/1/2 84/1/2 88/1/2
f 85/1/2 86/1/2 89/1/2
f 88/2/2 85/2/2 89/2/2
f 89/1/2 86/1/2 90/1/2
f 93/3/3 92/3/3 91/3/3
f 94/3/3 92/3/3 93/3/3
f 97/1/3 95/1/3 94/1/3
f 98/1/3 95/1/3 97/1/3
f 100/3/3 97/3/3 96/3/3
f 101/3/3 97/3/3 100/3/3
f 102/1/3 99/1/3 98/1/3
f 103/1/3 99/1/3 102/1/3
f 105/1/3 104/1/3 103/1/3
f 106/1/3 104/1/3 105/1/3
f 110/2/3 108/2/3 107/2/3
f 111/2/3 108/2/3 110/2/3
f 112/1/3 110/1/3 109/1/3
f 113/1/3 110/1/3 112/1/3
f 116/3/3 115/3/3 114/3/3
f 117/3/3 115/3/3 116/3/3
f 120/3/3 119/3/3 118/3/3
f 121/3/3 119/3/3 120/3/3
f 122/3/4 123/3/4 124/3/4
f 124/3/4 123/3/4 125/3/4
f 126/3/4 127/3/4 128/3/4
f 128/3/4 127/3/4 129/3/4
f 130/2/4 131/2/4 133/2/4
f 133/2/4 131/2/4 134/2/4
f 132/1/4 133/1/4 135/1/4
f 135/1/4 133/1/4 136/1/4
f 137/3/4 138/3/4 139/3/4
f 139/3/4 138/3/4 140/3/4
f 140/1/4 141/1/4 143/1/4
f 143/1/4 141/1/4 144/1/4
f 142/3/4 143/3/4 146/3/4
f 146/3/4 143/3/4 147/3/4
f 144/1/4 145/1/4 148/1/4
f 148/1/4 145/1/4 149/1/4
f 149/1/4 150/1/4 151/1/4
f 151/1/4 150/1/4 152/1/4
f 157/3/5 154/3/5 153/3/5
f 158/3/5 154/3/5 157/3/5
f 159/3/5 156/3/5 155/3/5
f 160/3/5 156/3/5 159/3/5
f 165/3/5 162/3/5 161/3/5
f 166/3/5 162/3/5 165/3/5
f 167/3/5 164/3/5 163/3/5
f 168/3/5 164/3/5 167/3/5
f 172/1/5 170/1/5 169/1/5
f 173/1/5 170/1/5 172/1/5
f 174/1/5 172/1/5 171/1/5
f 175/2/5 173/2/5 172/2/5
f 175/1/5 172/1/5 174/1/5
f 176/2/5 173/2/5 175/2/5
f 177/1/5 176/1/5 175/1/5
f 178/1/5 176/1/5 177/1/5
f 183/1/5 180/1/5 179/1/5
f 184/1/5 180/1/5 183/1/5
f 185/2/5 182/2/5 181/2/5
f 186/2/5 182/2/5 185/2/5
f 187/2/5 184/2/5 183/2/5
f 188/2/5 184/2/5 187/2/5
f 189/1/5 188/1/5 187/1/5
f 190/1/5 188/1/5 189/1/5
f 193/1/5 192/1/5 191/1/5
f 194/1/5 192/1/5 193/1/5
f 195/2/5 194/2/5 193/2/5
f 196/2/5 194/2/5 195/2/5
f 197/1/5 196/1/5 195/1/5
f 198/1/5 196/1/5 197/1/5
f 199/3/6 200/3/6 203/3/6
f 203/3/6 200/3/6 204/3/6
f 201/3/6 202/3/6 205/3/6
f 205/3/6 202/3/6 206/3/6
f 207/3/6 208/3/6 211/3/6
f 211/3/6 208/3/6 212/3/6
f 209/3/6 210/3/6 213/3/6
f 213/3/6 210/3/6 214/3/6
f 215/1/6 216/1/6 218/1/6
f 218/1/6 216/1/6 219/1/6
f 217/1/6 218/1/6 220/1/6
f 218/2/6 219/2/6 221/2/6
f 220/1/6 218/1/6 221/1/6
f 221/2/6 219/2/6 222/2/6
f 221/1/6 222/1/6 223/1/6
f 223/1/6 222/1/6 224/1/6
f 225/1/6 226/1/6 229/1/6
f 229/1/6 226/1/6 230/1/6
f 227/2/6 228/2/6 231/2/6
f 231/2/6 228/2/6 232/2/6
f 229/2/6 230/2/6 233/2/6
f 233/2/6 230/2/6 234/2/6
f 233/1/6 234/1/6 235/1/6
f 235/1/6 234/1/6 236/1/6
f 237/1/6 238/1/6 239/1/6
f 239/1/6 238/1/6 240/1/6
f 239/2/6 240/2/6 241/2/6
f 241/2/6 240/2/6 242/2/6
f 241/1/6 242/1/6 243/1/6
f 243/1/6 242/1/6 244/1/6
