# MagicaVoxel @ Ephtracy

# group
o 

# material
mtllib Fungus 1.mtl
usemtl palette

# normals
vn -1 0 0
vn 1 0 0
vn 0 0 1
vn 0 0 -1
vn 0 -1 0
vn 0 1 0

# texcoords
vt 0.0292969 0.5
vt 0.107422 0.5

# verts
v 0.4 -0.5 0.1
v 0.4 -0.5 0
v 0.4 -0.5 -0.1
v 0.4 -0.5 -0.2
v 0.4 -0.4 0.1
v 0.4 -0.4 0
v 0.4 -0.4 -0.1
v 0.4 -0.4 -0.2
v 0.5 -0.5 0.2
v 0.5 -0.5 0.1
v 0.5 -0.5 -0.2
v 0.5 -0.5 -0.3
v 0.5 -0.4 0.2
v 0.5 -0.4 0.1
v 0.5 -0.4 0
v 0.5 -0.4 -0.1
v 0.5 -0.4 -0.2
v 0.5 -0.4 -0.3
v 0.5 -0.3 0.1
v 0.5 -0.3 0
v 0.5 -0.3 -0.2
v 0.6 -0.7 0
v 0.6 -0.7 -0.1
v 0.6 -0.5 0
v 0.6 -0.5 -0.1
v 0.6 -0.3 0
v 0.6 -0.3 -0.1
v 0.6 -0.2 0
v 0.6 -0.2 -0.1
v 0.7 -0.7 0
v 0.7 -0.7 -0.1
v 0.7 -0.5 0
v 0.7 -0.5 -0.1
v 0.7 -0.3 0
v 0.7 -0.3 -0.1
v 0.7 -0.2 0
v 0.7 -0.2 -0.1
v 0.8 -0.5 0.2
v 0.8 -0.5 0.1
v 0.8 -0.5 -0.2
v 0.8 -0.5 -0.3
v 0.8 -0.4 0.2
v 0.8 -0.4 0.1
v 0.8 -0.4 -0.1
v 0.8 -0.4 -0.2
v 0.8 -0.4 -0.3
v 0.8 -0.3 0.1
v 0.8 -0.3 -0.1
v 0.8 -0.3 -0.2
v 0.9 -0.5 0.1
v 0.9 -0.5 -0.2
v 0.9 -0.4 0.1
v 0.9 -0.4 -0.2
v 0.5 -0.5 0.2
v 0.5 -0.4 0.2
v 0.7 -0.5 0.2
v 0.7 -0.4 0.2
v 0.8 -0.5 0.2
v 0.8 -0.4 0.2
v 0.4 -0.5 0.1
v 0.4 -0.4 0.1
v 0.5 -0.5 0.1
v 0.5 -0.4 0.1
v 0.5 -0.3 0.1
v 0.6 -0.4 0.1
v 0.6 -0.3 0.1
v 0.7 -0.4 0.1
v 0.8 -0.5 0.1
v 0.8 -0.4 0.1
v 0.8 -0.3 0.1
v 0.9 -0.5 0.1
v 0.9 -0.4 0.1
v 0.6 -0.7 0
v 0.6 -0.5 0
v 0.6 -0.3 0
v 0.6 -0.2 0
v 0.7 -0.7 0
v 0.7 -0.5 0
v 0.7 -0.3 0
v 0.7 -0.2 0
v 0.6 -0.7 -0.1
v 0.6 -0.5 -0.1
v 0.6 -0.3 -0.1
v 0.6 -0.2 -0.1
v 0.7 -0.7 -0.1
v 0.7 -0.5 -0.1
v 0.7 -0.3 -0.1
v 0.7 -0.2 -0.1
v 0.4 -0.5 -0.2
v 0.4 -0.4 -0.2
v 0.5 -0.5 -0.2
v 0.5 -0.4 -0.2
v 0.5 -0.3 -0.2
v 0.6 -0.4 -0.2
v 0.7 -0.4 -0.2
v 0.7 -0.3 -0.2
v 0.8 -0.5 -0.2
v 0.8 -0.4 -0.2
v 0.8 -0.3 -0.2
v 0.9 -0.5 -0.2
v 0.9 -0.4 -0.2
v 0.5 -0.5 -0.3
v 0.5 -0.4 -0.3
v 0.6 -0.5 -0.3
v 0.6 -0.4 -0.3
v 0.8 -0.5 -0.3
v 0.8 -0.4 -0.3
v 0.6 -0.7 0
v 0.7 -0.7 0
v 0.6 -0.7 -0.1
v 0.7 -0.7 -0.1
v 0.5 -0.5 0.2
v 0.7 -0.5 0.2
v 0.8 -0.5 0.2
v 0.4 -0.5 0.1
v 0.5 -0.5 0.1
v 0.7 -0.5 0.1
v 0.8 -0.5 0.1
v 0.9 -0.5 0.1
v 0.4 -0.5 0
v 0.5 -0.5 0
v 0.6 -0.5 0
v 0.7 -0.5 0
v 0.4 -0.5 -0.1
v 0.5 -0.5 -0.1
v 0.6 -0.5 -0.1
v 0.7 -0.5 -0.1
v 0.4 -0.5 -0.2
v 0.5 -0.5 -0.2
v 0.6 -0.5 -0.2
v 0.8 -0.5 -0.2
v 0.9 -0.5 -0.2
v 0.5 -0.5 -0.3
v 0.6 -0.5 -0.3
v 0.8 -0.5 -0.3
v 0.5 -0.4 0.2
v 0.7 -0.4 0.2
v 0.8 -0.4 0.2
v 0.4 -0.4 0.1
v 0.5 -0.4 0.1
v 0.6 -0.4 0.1
v 0.7 -0.4 0.1
v 0.8 -0.4 0.1
v 0.9 -0.4 0.1
v 0.4 -0.4 0
v 0.5 -0.4 0
v 0.4 -0.4 -0.1
v 0.5 -0.4 -0.1
v 0.8 -0.4 -0.1
v 0.4 -0.4 -0.2
v 0.5 -0.4 -0.2
v 0.6 -0.4 -0.2
v 0.7 -0.4 -0.2
v 0.8 -0.4 -0.2
v 0.9 -0.4 -0.2
v 0.5 -0.4 -0.3
v 0.6 -0.4 -0.3
v 0.8 -0.4 -0.3
v 0.5 -0.3 0.1
v 0.6 -0.3 0.1
v 0.8 -0.3 0.1
v 0.5 -0.3 0
v 0.6 -0.3 0
v 0.7 -0.3 0
v 0.6 -0.3 -0.1
v 0.7 -0.3 -0.1
v 0.8 -0.3 -0.1
v 0.5 -0.3 -0.2
v 0.7 -0.3 -0.2
v 0.8 -0.3 -0.2
v 0.6 -0.2 0
v 0.7 -0.2 0
v 0.6 -0.2 -0.1
v 0.7 -0.2 -0.1

# faces
f 5/2/1 2/2/1 1/2/1
f 6/1/1 3/1/1 2/1/1
f 6/2/1 2/2/1 5/2/1
f 7/2/1 4/2/1 3/2/1
f 7/1/1 3/1/1 6/1/1
f 8/2/1 4/2/1 7/2/1
f 13/2/1 10/2/1 9/2/1
f 14/2/1 10/2/1 13/2/1
f 17/1/1 12/1/1 11/1/1
f 18/1/1 12/1/1 17/1/1
f 19/1/1 15/1/1 14/1/1
f 20/2/1 16/2/1 15/2/1
f 20/1/1 15/1/1 19/1/1
f 20/2/1 17/2/1 16/2/1
f 21/2/1 17/2/1 20/2/1
f 24/1/1 23/1/1 22/1/1
f 25/1/1 23/1/1 24/1/1
f 28/2/1 27/2/1 26/2/1
f 29/2/1 27/2/1 28/2/1
f 30/1/2 31/1/2 32/1/2
f 32/1/2 31/1/2 33/1/2
f 34/2/2 35/2/2 36/2/2
f 36/2/2 35/2/2 37/2/2
f 38/1/2 39/1/2 42/1/2
f 42/1/2 39/1/2 43/1/2
f 40/2/2 41/2/2 45/2/2
f 45/2/2 41/2/2 46/2/2
f 43/2/2 44/2/2 47/2/2
f 44/1/2 45/1/2 48/1/2
f 47/2/2 44/2/2 48/2/2
f 48/1/2 45/1/2 49/1/2
f 50/2/2 51/2/2 52/2/2
f 52/2/2 51/2/2 53/2/2
f 56/2/3 55/2/3 54/2/3
f 57/2/3 55/2/3 56/2/3
f 58/1/3 57/1/3 56/1/3
f 59/1/3 57/1/3 58/1/3
f 62/2/3 61/2/3 60/2/3
f 63/2/3 61/2/3 62/2/3
f 65/1/3 64/1/3 63/1/3
f 66/1/3 64/1/3 65/1/3
f 67/2/3 66/2/3 65/2/3
f 69/2/3 66/2/3 67/2/3
f 70/2/3 66/2/3 69/2/3
f 71/2/3 69/2/3 68/2/3
f 72/2/3 69/2/3 71/2/3
f 77/1/3 74/1/3 73/1/3
f 78/1/3 74/1/3 77/1/3
f 79/2/3 76/2/3 75/2/3
f 80/2/3 76/2/3 79/2/3
f 81/1/4 82/1/4 85/1/4
f 85/1/4 82/1/4 86/1/4
f 83/2/4 84/2/4 87/2/4
f 87/2/4 84/2/4 88/2/4
f 89/2/4 90/2/4 91/2/4
f 91/2/4 90/2/4 92/2/4
f 92/2/4 93/2/4 94/2/4
f 94/2/4 93/2/4 95/2/4
f 95/2/4 93/2/4 96/2/4
f 95/1/4 96/1/4 98/1/4
f 98/1/4 96/1/4 99/1/4
f 97/2/4 98/2/4 100/2/4
f 100/2/4 98/2/4 101/2/4
f 102/1/4 103/1/4 104/1/4
f 104/1/4 103/1/4 105/1/4
f 104/2/4 105/2/4 106/2/4
f 106/2/4 105/2/4 107/2/4
f 110/1/5 109/1/5 108/1/5
f 111/1/5 109/1/5 110/1/5
f 116/2/5 113/2/5 112/2/5
f 117/1/5 114/1/5 113/1/5
f 117/2/5 113/2/5 116/2/5
f 118/1/5 114/1/5 117/1/5
f 120/2/5 116/2/5 115/2/5
f 120/2/5 119/2/5 118/2/5
f 120/2/5 118/2/5 117/2/5
f 120/2/5 117/2/5 116/2/5
f 121/2/5 119/2/5 120/2/5
f 122/2/5 119/2/5 121/2/5
f 123/2/5 119/2/5 122/2/5
f 124/1/5 121/1/5 120/1/5
f 125/2/5 122/2/5 121/2/5
f 125/1/5 121/1/5 124/1/5
f 126/2/5 122/2/5 125/2/5
f 127/2/5 119/2/5 123/2/5
f 128/2/5 126/2/5 125/2/5
f 128/2/5 127/2/5 126/2/5
f 128/2/5 125/2/5 124/2/5
f 129/2/5 127/2/5 128/2/5
f 130/2/5 127/2/5 129/2/5
f 131/2/5 119/2/5 127/2/5
f 131/2/5 127/2/5 130/2/5
f 132/2/5 119/2/5 131/2/5
f 133/1/5 130/1/5 129/1/5
f 134/2/5 131/2/5 130/2/5
f 134/1/5 130/1/5 133/1/5
f 135/2/5 131/2/5 134/2/5
f 136/2/6 137/2/6 140/2/6
f 140/2/6 137/2/6 141/2/6
f 137/1/6 138/1/6 142/1/6
f 141/2/6 137/2/6 142/2/6
f 142/1/6 138/1/6 143/1/6
f 139/2/6 140/2/6 145/2/6
f 145/2/6 140/2/6 146/2/6
f 145/1/6 146/1/6 147/1/6
f 147/1/6 146/1/6 148/1/6
f 143/2/6 144/2/6 149/2/6
f 147/2/6 148/2/6 150/2/6
f 150/2/6 148/2/6 151/2/6
f 149/2/6 144/2/6 154/2/6
f 154/2/6 144/2/6 155/2/6
f 151/1/6 152/1/6 156/1/6
f 152/2/6 153/2/6 157/2/6
f 156/1/6 152/1/6 157/1/6
f 153/2/6 154/2/6 157/2/6
f 157/2/6 154/2/6 158/2/6
f 159/1/6 160/1/6 162/1/6
f 160/2/6 161/2/6 163/2/6
f 162/1/6 160/1/6 163/1/6
f 163/2/6 161/2/6 164/2/6
f 162/2/6 163/2/6 165/2/6
f 164/2/6 161/2/6 166/2/6
f 166/2/6 161/2/6 167/2/6
f 162/2/6 165/2/6 168/2/6
f 165/2/6 166/2/6 168/2/6
f 166/1/6 167/1/6 169/1/6
f 168/2/6 166/2/6 169/2/6
f 169/1/6 167/1/6 170/1/6
f 171/2/6 172/2/6 173/2/6
f 173/2/6 172/2/6 174/2/6
