# MagicaVoxel @ Ephtracy

# group
o 

# material
mtllib Fish.mtl
usemtl palette

# normals
vn -1 0 0
vn 1 0 0
vn 0 0 1
vn 0 0 -1
vn 0 -1 0
vn 0 1 0

# texcoords
vt 0.00195313 0.5
vt 0.0800781 0.5
vt 0.0878906 0.5
vt 0.103516 0.5

# verts
v -0.4 -0.5 0.4
v -0.4 -0.5 0.3
v -0.4 -0.3 0.4
v -0.4 -0.3 0.3
v -0.3 -0.4 0.9
v -0.3 -0.4 0.7
v -0.3 -0.4 0.5
v -0.3 -0.4 0.4
v -0.3 -0.4 0.3
v -0.3 -0.4 0.1
v -0.3 -0.3 0.9
v -0.3 -0.3 0.7
v -0.3 -0.3 0.6
v -0.3 -0.3 0.5
v -0.3 -0.3 0.4
v -0.3 -0.3 0.3
v -0.3 -0.3 0.2
v -0.3 -0.3 0.1
v -0.3 -0.3 0
v -0.3 -0.2 0.9
v -0.3 -0.2 0.7
v -0.3 -0.2 0.6
v -0.3 -0.2 0.5
v -0.3 -0.2 0.4
v -0.3 -0.2 0.3
v -0.3 -0.2 0.2
v -0.3 -0.2 0.1
v -0.3 -0.2 0
v -0.3 -0.1 0.9
v -0.3 -0.1 0.7
v -0.3 -0.1 0.6
v -0.3 -0.1 0.5
v -0.3 -0.1 0.3
v -0.3 -0.1 0.1
v -0.3 0 0.6
v -0.3 0 0.3
v -0.2 -0.5 0.4
v -0.2 -0.5 0.3
v -0.2 -0.4 0.4
v -0.2 -0.4 0.3
v -0.3 -0.5 0.4
v -0.3 -0.5 0.3
v -0.3 -0.4 0.4
v -0.3 -0.4 0.3
v -0.2 -0.4 0.9
v -0.2 -0.4 0.7
v -0.2 -0.4 0.5
v -0.2 -0.4 0.4
v -0.2 -0.4 0.3
v -0.2 -0.4 0.1
v -0.2 -0.3 0.9
v -0.2 -0.3 0.7
v -0.2 -0.3 0.6
v -0.2 -0.3 0.5
v -0.2 -0.3 0.4
v -0.2 -0.3 0.3
v -0.2 -0.3 0.2
v -0.2 -0.3 0.1
v -0.2 -0.3 0
v -0.2 -0.2 0.9
v -0.2 -0.2 0.7
v -0.2 -0.2 0.6
v -0.2 -0.2 0.5
v -0.2 -0.2 0.4
v -0.2 -0.2 0.3
v -0.2 -0.2 0.2
v -0.2 -0.2 0.1
v -0.2 -0.2 0
v -0.2 -0.1 0.9
v -0.2 -0.1 0.7
v -0.2 -0.1 0.6
v -0.2 -0.1 0.5
v -0.2 -0.1 0.3
v -0.2 -0.1 0.1
v -0.2 0 0.6
v -0.2 0 0.3
v -0.1 -0.5 0.4
v -0.1 -0.5 0.3
v -0.1 -0.3 0.4
v -0.1 -0.3 0.3
v -0.3 -0.4 0.9
v -0.3 -0.3 0.9
v -0.3 -0.2 0.9
v -0.3 -0.1 0.9
v -0.2 -0.4 0.9
v -0.2 -0.3 0.9
v -0.2 -0.2 0.9
v -0.2 -0.1 0.9
v -0.3 -0.3 0.7
v -0.3 -0.2 0.7
v -0.2 -0.3 0.7
v -0.2 -0.2 0.7
v -0.3 -0.1 0.6
v -0.3 0 0.6
v -0.2 -0.1 0.6
v -0.2 0 0.6
v -0.3 -0.4 0.5
v -0.3 -0.3 0.5
v -0.3 -0.2 0.5
v -0.3 -0.1 0.5
v -0.2 -0.4 0.5
v -0.2 -0.3 0.5
v -0.2 -0.2 0.5
v -0.2 -0.1 0.5
v -0.4 -0.5 0.4
v -0.4 -0.3 0.4
v -0.3 -0.5 0.4
v -0.3 -0.4 0.4
v -0.3 -0.3 0.4
v -0.2 -0.5 0.4
v -0.2 -0.4 0.4
v -0.2 -0.3 0.4
v -0.1 -0.5 0.4
v -0.1 -0.3 0.4
v -0.3 -0.4 0.7
v -0.3 -0.3 0.7
v -0.3 -0.2 0.7
v -0.3 -0.1 0.7
v -0.2 -0.4 0.7
v -0.2 -0.3 0.7
v -0.2 -0.2 0.7
v -0.2 -0.1 0.7
v -0.4 -0.5 0.3
v -0.4 -0.3 0.3
v -0.3 -0.5 0.3
v -0.3 -0.4 0.3
v -0.3 -0.3 0.3
v -0.3 -0.1 0.3
v -0.3 0 0.3
v -0.2 -0.5 0.3
v -0.2 -0.4 0.3
v -0.2 -0.3 0.3
v -0.2 -0.1 0.3
v -0.2 0 0.3
v -0.1 -0.5 0.3
v -0.1 -0.3 0.3
v -0.3 -0.4 0.1
v -0.3 -0.3 0.1
v -0.3 -0.2 0.1
v -0.3 -0.1 0.1
v -0.2 -0.4 0.1
v -0.2 -0.3 0.1
v -0.2 -0.2 0.1
v -0.2 -0.1 0.1
v -0.3 -0.3 0
v -0.3 -0.2 0
v -0.2 -0.3 0
v -0.2 -0.2 0
v -0.4 -0.5 0.4
v -0.3 -0.5 0.4
v -0.2 -0.5 0.4
v -0.1 -0.5 0.4
v -0.4 -0.5 0.3
v -0.3 -0.5 0.3
v -0.2 -0.5 0.3
v -0.1 -0.5 0.3
v -0.3 -0.4 0.9
v -0.2 -0.4 0.9
v -0.3 -0.4 0.7
v -0.2 -0.4 0.7
v -0.3 -0.4 0.5
v -0.2 -0.4 0.5
v -0.3 -0.4 0.4
v -0.2 -0.4 0.4
v -0.3 -0.4 0.3
v -0.2 -0.4 0.3
v -0.3 -0.4 0.1
v -0.2 -0.4 0.1
v -0.3 -0.3 0.7
v -0.2 -0.3 0.7
v -0.3 -0.3 0.6
v -0.2 -0.3 0.6
v -0.3 -0.3 0.5
v -0.2 -0.3 0.5
v -0.3 -0.3 0.1
v -0.2 -0.3 0.1
v -0.3 -0.3 0
v -0.2 -0.3 0
v -0.3 -0.2 0.9
v -0.2 -0.2 0.9
v -0.3 -0.2 0.7
v -0.2 -0.2 0.7
v -0.3 -0.1 0.6
v -0.2 -0.1 0.6
v -0.3 -0.1 0.5
v -0.2 -0.1 0.5
v -0.3 -0.3 0.9
v -0.2 -0.3 0.9
v -0.3 -0.3 0.7
v -0.2 -0.3 0.7
v -0.4 -0.3 0.4
v -0.3 -0.3 0.4
v -0.2 -0.3 0.4
v -0.1 -0.3 0.4
v -0.4 -0.3 0.3
v -0.3 -0.3 0.3
v -0.2 -0.3 0.3
v -0.1 -0.3 0.3
v -0.3 -0.2 0.7
v -0.2 -0.2 0.7
v -0.3 -0.2 0.6
v -0.2 -0.2 0.6
v -0.3 -0.2 0.5
v -0.2 -0.2 0.5
v -0.3 -0.2 0.1
v -0.2 -0.2 0.1
v -0.3 -0.2 0
v -0.2 -0.2 0
v -0.3 -0.1 0.9
v -0.2 -0.1 0.9
v -0.3 -0.1 0.7
v -0.2 -0.1 0.7
v -0.3 -0.1 0.3
v -0.2 -0.1 0.3
v -0.3 -0.1 0.1
v -0.2 -0.1 0.1
v -0.3 0 0.6
v -0.2 0 0.6
v -0.3 0 0.3
v -0.2 0 0.3

# faces
f 3/4/1 2/4/1 1/4/1
f 4/4/1 2/4/1 3/4/1
f 11/4/1 6/4/1 5/4/1
f 12/4/1 6/4/1 11/4/1
f 14/2/1 8/2/1 7/2/1
f 15/2/1 8/2/1 14/2/1
f 16/3/1 10/3/1 9/3/1
f 17/3/1 10/3/1 16/3/1
f 18/3/1 10/3/1 17/3/1
f 21/4/1 13/4/1 12/4/1
f 22/2/1 15/2/1 14/2/1
f 22/2/1 14/2/1 13/2/1
f 22/4/1 13/4/1 21/4/1
f 23/2/1 15/2/1 22/2/1
f 24/3/1 16/3/1 15/3/1
f 24/2/1 15/2/1 23/2/1
f 25/1/1 17/1/1 16/1/1
f 25/3/1 16/3/1 24/3/1
f 26/3/1 18/3/1 17/3/1
f 26/1/1 17/1/1 25/1/1
f 26/3/1 19/3/1 18/3/1
f 27/3/1 19/3/1 26/3/1
f 28/3/1 19/3/1 27/3/1
f 29/4/1 21/4/1 20/4/1
f 30/4/1 21/4/1 29/4/1
f 32/2/1 25/2/1 24/2/1
f 32/2/1 24/2/1 23/2/1
f 33/3/1 27/3/1 26/3/1
f 33/3/1 26/3/1 25/3/1
f 33/2/1 25/2/1 32/2/1
f 34/3/1 27/3/1 33/3/1
f 35/4/1 32/4/1 31/4/1
f 35/4/1 33/4/1 32/4/1
f 36/4/1 33/4/1 35/4/1
f 39/4/1 38/4/1 37/4/1
f 40/4/1 38/4/1 39/4/1
f 41/4/2 42/4/2 43/4/2
f 43/4/2 42/4/2 44/4/2
f 45/4/2 46/4/2 51/4/2
f 51/4/2 46/4/2 52/4/2
f 47/2/2 48/2/2 54/2/2
f 54/2/2 48/2/2 55/2/2
f 49/3/2 50/3/2 56/3/2
f 56/3/2 50/3/2 57/3/2
f 57/3/2 50/3/2 58/3/2
f 52/4/2 53/4/2 61/4/2
f 54/2/2 55/2/2 62/2/2
f 53/2/2 54/2/2 62/2/2
f 61/4/2 53/4/2 62/4/2
f 62/2/2 55/2/2 63/2/2
f 55/3/2 56/3/2 64/3/2
f 63/2/2 55/2/2 64/2/2
f 56/1/2 57/1/2 65/1/2
f 64/3/2 56/3/2 65/3/2
f 57/3/2 58/3/2 66/3/2
f 65/1/2 57/1/2 66/1/2
f 58/3/2 59/3/2 66/3/2
f 66/3/2 59/3/2 67/3/2
f 67/3/2 59/3/2 68/3/2
f 60/4/2 61/4/2 69/4/2
f 69/4/2 61/4/2 70/4/2
f 64/2/2 65/2/2 72/2/2
f 63/2/2 64/2/2 72/2/2
f 66/3/2 67/3/2 73/3/2
f 65/3/2 66/3/2 73/3/2
f 72/2/2 65/2/2 73/2/2
f 73/3/2 67/3/2 74/3/2
f 71/4/2 72/4/2 75/4/2
f 72/4/2 73/4/2 75/4/2
f 75/4/2 73/4/2 76/4/2
f 77/4/2 78/4/2 79/4/2
f 79/4/2 78/4/2 80/4/2
f 85/4/3 82/4/3 81/4/3
f 86/4/3 82/4/3 85/4/3
f 87/4/3 84/4/3 83/4/3
f 88/4/3 84/4/3 87/4/3
f 91/4/3 90/4/3 89/4/3
f 92/4/3 90/4/3 91/4/3
f 95/4/3 94/4/3 93/4/3
f 96/4/3 94/4/3 95/4/3
f 101/2/3 98/2/3 97/2/3
f 102/2/3 98/2/3 101/2/3
f 103/2/3 100/2/3 99/2/3
f 104/2/3 100/2/3 103/2/3
f 107/4/3 106/4/3 105/4/3
f 108/4/3 106/4/3 107/4/3
f 109/4/3 106/4/3 108/4/3
f 113/4/3 111/4/3 110/4/3
f 113/4/3 112/4/3 111/4/3
f 114/4/3 112/4/3 113/4/3
f 115/4/4 116/4/4 119/4/4
f 119/4/4 116/4/4 120/4/4
f 117/4/4 118/4/4 121/4/4
f 121/4/4 118/4/4 122/4/4
f 123/4/4 124/4/4 125/4/4
f 125/4/4 124/4/4 126/4/4
f 126/4/4 124/4/4 127/4/4
f 128/4/4 129/4/4 133/4/4
f 133/4/4 129/4/4 134/4/4
f 131/4/4 132/4/4 135/4/4
f 130/4/4 131/4/4 135/4/4
f 135/4/4 132/4/4 136/4/4
f 137/3/4 138/3/4 141/3/4
f 141/3/4 138/3/4 142/3/4
f 139/3/4 140/3/4 143/3/4
f 143/3/4 140/3/4 144/3/4
f 145/3/4 146/3/4 147/3/4
f 147/3/4 146/3/4 148/3/4
f 153/4/5 150/4/5 149/4/5
f 154/4/5 150/4/5 153/4/5
f 155/4/5 152/4/5 151/4/5
f 156/4/5 152/4/5 155/4/5
f 159/4/5 158/4/5 157/4/5
f 160/4/5 158/4/5 159/4/5
f 163/2/5 162/2/5 161/2/5
f 164/2/5 162/2/5 163/2/5
f 165/3/5 164/3/5 163/3/5
f 166/3/5 164/3/5 165/3/5
f 167/3/5 166/3/5 165/3/5
f 168/3/5 166/3/5 167/3/5
f 171/4/5 170/4/5 169/4/5
f 172/4/5 170/4/5 171/4/5
f 173/2/5 172/2/5 171/2/5
f 174/2/5 172/2/5 173/2/5
f 177/3/5 176/3/5 175/3/5
f 178/3/5 176/3/5 177/3/5
f 181/4/5 180/4/5 179/4/5
f 182/4/5 180/4/5 181/4/5
f 185/4/5 184/4/5 183/4/5
f 186/4/5 184/4/5 185/4/5
f 187/4/6 188/4/6 189/4/6
f 189/4/6 188/4/6 190/4/6
f 191/4/6 192/4/6 195/4/6
f 195/4/6 192/4/6 196/4/6
f 193/4/6 194/4/6 197/4/6
f 197/4/6 194/4/6 198/4/6
f 199/4/6 200/4/6 201/4/6
f 201/4/6 200/4/6 202/4/6
f 201/2/6 202/2/6 203/2/6
f 203/2/6 202/2/6 204/2/6
f 205/3/6 206/3/6 207/3/6
f 207/3/6 206/3/6 208/3/6
f 209/4/6 210/4/6 211/4/6
f 211/4/6 210/4/6 212/4/6
f 213/3/6 214/3/6 215/3/6
f 215/3/6 214/3/6 216/3/6
f 217/4/6 218/4/6 219/4/6
f 219/4/6 218/4/6 220/4/6
