# MagicaVoxel @ Ephtracy

# group
o 

# material
mtllib Flowers.mtl
usemtl palette

# normals
vn -1 0 0
vn 1 0 0
vn 0 0 1
vn 0 0 -1
vn 0 -1 0
vn 0 1 0

# texcoords
vt 0.0214844 0.5
vt 0.0332031 0.5
vt 0.0371094 0.5
vt 0.0410156 0.5
vt 0.0683594 0.5
vt 0.0761719 0.5
vt 0.0839844 0.5
vt 0.103516 0.5
vt 0.107422 0.5
vt 0.115234 0.5

# verts
v -1.1 -0.7 -0.3
v -1.1 -0.7 -0.4
v -1.1 -0.7 -1.1
v -1.1 -0.7 -1.2
v -1.1 -0.6 -0.3
v -1.1 -0.6 -0.4
v -1.1 -0.6 -1.1
v -1.1 -0.6 -1.2
v -1 -0.9 -0.3
v -1 -0.9 -0.4
v -1 -0.9 -1.1
v -1 -0.9 -1.2
v -1 -0.7 -0.2
v -1 -0.7 -0.3
v -1 -0.7 -0.4
v -1 -0.7 -0.5
v -1 -0.7 -1
v -1 -0.7 -1.1
v -1 -0.7 -1.2
v -1 -0.7 -1.3
v -1 -0.6 -0.2
v -1 -0.6 -0.3
v -1 -0.6 -0.4
v -1 -0.6 -0.5
v -1 -0.6 -1
v -1 -0.6 -1.1
v -1 -0.6 -1.2
v -1 -0.6 -1.3
v -0.3 -0.7 1
v -0.3 -0.7 0.9
v -0.3 -0.7 0.2
v -0.3 -0.7 0.1
v -0.3 -0.6 1
v -0.3 -0.6 0.9
v -0.3 -0.6 0.2
v -0.3 -0.6 0.1
v -0.2 -0.9 1
v -0.2 -0.9 0.9
v -0.2 -0.9 0.2
v -0.2 -0.9 0.1
v -0.2 -0.7 1.1
v -0.2 -0.7 1
v -0.2 -0.7 0.9
v -0.2 -0.7 0.8
v -0.2 -0.7 0.3
v -0.2 -0.7 0.2
v -0.2 -0.7 0.1
v -0.2 -0.7 0
v -0.2 -0.6 1.1
v -0.2 -0.6 1
v -0.2 -0.6 0.9
v -0.2 -0.6 0.8
v -0.2 -0.6 0.3
v -0.2 -0.6 0.2
v -0.2 -0.6 0.1
v -0.2 -0.6 0
v 0 -0.7 -0.3
v 0 -0.7 -0.4
v 0 -0.7 -1.1
v 0 -0.7 -1.2
v 0 -0.6 -0.3
v 0 -0.6 -0.4
v 0 -0.6 -1.1
v 0 -0.6 -1.2
v 0.1 -0.9 -0.3
v 0.1 -0.9 -0.4
v 0.1 -0.9 -1.1
v 0.1 -0.9 -1.2
v 0.1 -0.7 -0.2
v 0.1 -0.7 -0.3
v 0.1 -0.7 -0.4
v 0.1 -0.7 -0.5
v 0.1 -0.7 -1
v 0.1 -0.7 -1.1
v 0.1 -0.7 -1.2
v 0.1 -0.7 -1.3
v 0.1 -0.6 -0.2
v 0.1 -0.6 -0.3
v 0.1 -0.6 -0.4
v 0.1 -0.6 -0.5
v 0.1 -0.6 -1
v 0.1 -0.6 -1.1
v 0.1 -0.6 -1.2
v 0.1 -0.6 -1.3
v 0.8 -0.7 1
v 0.8 -0.7 0.9
v 0.8 -0.7 0.2
v 0.8 -0.7 0.1
v 0.8 -0.6 1
v 0.8 -0.6 0.9
v 0.8 -0.6 0.2
v 0.8 -0.6 0.1
v 0.9 -0.9 1
v 0.9 -0.9 0.9
v 0.9 -0.9 0.2
v 0.9 -0.9 0.1
v 0.9 -0.7 1.1
v 0.9 -0.7 1
v 0.9 -0.7 0.9
v 0.9 -0.7 0.8
v 0.9 -0.7 0.3
v 0.9 -0.7 0.2
v 0.9 -0.7 0.1
v 0.9 -0.7 0
v 0.9 -0.6 1.1
v 0.9 -0.6 1
v 0.9 -0.6 0.9
v 0.9 -0.6 0.8
v 0.9 -0.6 0.3
v 0.9 -0.6 0.2
v 0.9 -0.6 0.1
v 0.9 -0.6 0
v -0.9 -0.9 -0.3
v -0.9 -0.9 -0.4
v -0.9 -0.9 -1.1
v -0.9 -0.9 -1.2
v -0.9 -0.7 -0.2
v -0.9 -0.7 -0.3
v -0.9 -0.7 -0.4
v -0.9 -0.7 -0.5
v -0.9 -0.7 -1
v -0.9 -0.7 -1.1
v -0.9 -0.7 -1.2
v -0.9 -0.7 -1.3
v -0.9 -0.6 -0.2
v -0.9 -0.6 -0.3
v -0.9 -0.6 -0.4
v -0.9 -0.6 -0.5
v -0.9 -0.6 -1
v -0.9 -0.6 -1.1
v -0.9 -0.6 -1.2
v -0.9 -0.6 -1.3
v -0.8 -0.7 -0.3
v -0.8 -0.7 -0.4
v -0.8 -0.7 -1.1
v -0.8 -0.7 -1.2
v -0.8 -0.6 -0.3
v -0.8 -0.6 -0.4
v -0.8 -0.6 -1.1
v -0.8 -0.6 -1.2
v -0.1 -0.9 1
v -0.1 -0.9 0.9
v -0.1 -0.9 0.2
v -0.1 -0.9 0.1
v -0.1 -0.7 1.1
v -0.1 -0.7 1
v -0.1 -0.7 0.9
v -0.1 -0.7 0.8
v -0.1 -0.7 0.3
v -0.1 -0.7 0.2
v -0.1 -0.7 0.1
v -0.1 -0.7 0
v -0.1 -0.6 1.1
v -0.1 -0.6 1
v -0.1 -0.6 0.9
v -0.1 -0.6 0.8
v -0.1 -0.6 0.3
v -0.1 -0.6 0.2
v -0.1 -0.6 0.1
v -0.1 -0.6 0
v 0 -0.7 1
v 0 -0.7 0.9
v 0 -0.7 0.2
v 0 -0.7 0.1
v 0 -0.6 1
v 0 -0.6 0.9
v 0 -0.6 0.2
v 0 -0.6 0.1
v 0.2 -0.9 -0.3
v 0.2 -0.9 -0.4
v 0.2 -0.9 -1.1
v 0.2 -0.9 -1.2
v 0.2 -0.7 -0.2
v 0.2 -0.7 -0.3
v 0.2 -0.7 -0.4
v 0.2 -0.7 -0.5
v 0.2 -0.7 -1
v 0.2 -0.7 -1.1
v 0.2 -0.7 -1.2
v 0.2 -0.7 -1.3
v 0.2 -0.6 -0.2
v 0.2 -0.6 -0.3
v 0.2 -0.6 -0.4
v 0.2 -0.6 -0.5
v 0.2 -0.6 -1
v 0.2 -0.6 -1.1
v 0.2 -0.6 -1.2
v 0.2 -0.6 -1.3
v 0.3 -0.7 -0.3
v 0.3 -0.7 -0.4
v 0.3 -0.7 -1.1
v 0.3 -0.7 -1.2
v 0.3 -0.6 -0.3
v 0.3 -0.6 -0.4
v 0.3 -0.6 -1.1
v 0.3 -0.6 -1.2
v 1 -0.9 1
v 1 -0.9 0.9
v 1 -0.9 0.2
v 1 -0.9 0.1
v 1 -0.7 1.1
v 1 -0.7 1
v 1 -0.7 0.9
v 1 -0.7 0.8
v 1 -0.7 0.3
v 1 -0.7 0.2
v 1 -0.7 0.1
v 1 -0.7 0
v 1 -0.6 1.1
v 1 -0.6 1
v 1 -0.6 0.9
v 1 -0.6 0.8
v 1 -0.6 0.3
v 1 -0.6 0.2
v 1 -0.6 0.1
v 1 -0.6 0
v 1.1 -0.7 1
v 1.1 -0.7 0.9
v 1.1 -0.7 0.2
v 1.1 -0.7 0.1
v 1.1 -0.6 1
v 1.1 -0.6 0.9
v 1.1 -0.6 0.2
v 1.1 -0.6 0.1
v -0.2 -0.7 1.1
v -0.2 -0.6 1.1
v -0.1 -0.7 1.1
v -0.1 -0.6 1.1
v 0.9 -0.7 1.1
v 0.9 -0.6 1.1
v 1 -0.7 1.1
v 1 -0.6 1.1
v -0.3 -0.7 1
v -0.3 -0.6 1
v -0.2 -0.9 1
v -0.2 -0.7 1
v -0.2 -0.6 1
v -0.1 -0.9 1
v -0.1 -0.7 1
v -0.1 -0.6 1
v 0 -0.7 1
v 0 -0.6 1
v 0.8 -0.7 1
v 0.8 -0.6 1
v 0.9 -0.9 1
v 0.9 -0.7 1
v 0.9 -0.6 1
v 1 -0.9 1
v 1 -0.7 1
v 1 -0.6 1
v 1.1 -0.7 1
v 1.1 -0.6 1
v -0.2 -0.7 0.3
v -0.2 -0.6 0.3
v -0.1 -0.7 0.3
v -0.1 -0.6 0.3
v 0.9 -0.7 0.3
v 0.9 -0.6 0.3
v 1 -0.7 0.3
v 1 -0.6 0.3
v -0.3 -0.7 0.2
v -0.3 -0.6 0.2
v -0.2 -0.9 0.2
v -0.2 -0.7 0.2
v -0.2 -0.6 0.2
v -0.1 -0.9 0.2
v -0.1 -0.7 0.2
v -0.1 -0.6 0.2
v 0 -0.7 0.2
v 0 -0.6 0.2
v 0.8 -0.7 0.2
v 0.8 -0.6 0.2
v 0.9 -0.9 0.2
v 0.9 -0.7 0.2
v 0.9 -0.6 0.2
v 1 -0.9 0.2
v 1 -0.7 0.2
v 1 -0.6 0.2
v 1.1 -0.7 0.2
v 1.1 -0.6 0.2
v -1 -0.7 -0.2
v -1 -0.6 -0.2
v -0.9 -0.7 -0.2
v -0.9 -0.6 -0.2
v 0.1 -0.7 -0.2
v 0.1 -0.6 -0.2
v 0.2 -0.7 -0.2
v 0.2 -0.6 -0.2
v -1.1 -0.7 -0.3
v -1.1 -0.6 -0.3
v -1 -0.9 -0.3
v -1 -0.7 -0.3
v -1 -0.6 -0.3
v -0.9 -0.9 -0.3
v -0.9 -0.7 -0.3
v -0.9 -0.6 -0.3
v -0.8 -0.7 -0.3
v -0.8 -0.6 -0.3
v 0 -0.7 -0.3
v 0 -0.6 -0.3
v 0.1 -0.9 -0.3
v 0.1 -0.7 -0.3
v 0.1 -0.6 -0.3
v 0.2 -0.9 -0.3
v 0.2 -0.7 -0.3
v 0.2 -0.6 -0.3
v 0.3 -0.7 -0.3
v 0.3 -0.6 -0.3
v -1 -0.7 -1
v -1 -0.6 -1
v -0.9 -0.7 -1
v -0.9 -0.6 -1
v 0.1 -0.7 -1
v 0.1 -0.6 -1
v 0.2 -0.7 -1
v 0.2 -0.6 -1
v -1.1 -0.7 -1.1
v -1.1 -0.6 -1.1
v -1 -0.9 -1.1
v -1 -0.7 -1.1
v -1 -0.6 -1.1
v -0.9 -0.9 -1.1
v -0.9 -0.7 -1.1
v -0.9 -0.6 -1.1
v -0.8 -0.7 -1.1
v -0.8 -0.6 -1.1
v 0 -0.7 -1.1
v 0 -0.6 -1.1
v 0.1 -0.9 -1.1
v 0.1 -0.7 -1.1
v 0.1 -0.6 -1.1
v 0.2 -0.9 -1.1
v 0.2 -0.7 -1.1
v 0.2 -0.6 -1.1
v 0.3 -0.7 -1.1
v 0.3 -0.6 -1.1
v -0.3 -0.7 0.9
v -0.3 -0.6 0.9
v -0.2 -0.9 0.9
v -0.2 -0.7 0.9
v -0.2 -0.6 0.9
v -0.1 -0.9 0.9
v -0.1 -0.7 0.9
v -0.1 -0.6 0.9
v 0 -0.7 0.9
v 0 -0.6 0.9
v 0.8 -0.7 0.9
v 0.8 -0.6 0.9
v 0.9 -0.9 0.9
v 0.9 -0.7 0.9
v 0.9 -0.6 0.9
v 1 -0.9 0.9
v 1 -0.7 0.9
v 1 -0.6 0.9
v 1.1 -0.7 0.9
v 1.1 -0.6 0.9
v -0.2 -0.7 0.8
v -0.2 -0.6 0.8
v -0.1 -0.7 0.8
v -0.1 -0.6 0.8
v 0.9 -0.7 0.8
v 0.9 -0.6 0.8
v 1 -0.7 0.8
v 1 -0.6 0.8
v -0.3 -0.7 0.1
v -0.3 -0.6 0.1
v -0.2 -0.9 0.1
v -0.2 -0.7 0.1
v -0.2 -0.6 0.1
v -0.1 -0.9 0.1
v -0.1 -0.7 0.1
v -0.1 -0.6 0.1
v 0 -0.7 0.1
v 0 -0.6 0.1
v 0.8 -0.7 0.1
v 0.8 -0.6 0.1
v 0.9 -0.9 0.1
v 0.9 -0.7 0.1
v 0.9 -0.6 0.1
v 1 -0.9 0.1
v 1 -0.7 0.1
v 1 -0.6 0.1
v 1.1 -0.7 0.1
v 1.1 -0.6 0.1
v -0.2 -0.7 0
v -0.2 -0.6 0
v -0.1 -0.7 0
v -0.1 -0.6 0
v 0.9 -0.7 0
v 0.9 -0.6 0
v 1 -0.7 0
v 1 -0.6 0
v -1.1 -0.7 -0.4
v -1.1 -0.6 -0.4
v -1 -0.9 -0.4
v -1 -0.7 -0.4
v -1 -0.6 -0.4
v -0.9 -0.9 -0.4
v -0.9 -0.7 -0.4
v -0.9 -0.6 -0.4
v -0.8 -0.7 -0.4
v -0.8 -0.6 -0.4
v 0 -0.7 -0.4
v 0 -0.6 -0.4
v 0.1 -0.9 -0.4
v 0.1 -0.7 -0.4
v 0.1 -0.6 -0.4
v 0.2 -0.9 -0.4
v 0.2 -0.7 -0.4
v 0.2 -0.6 -0.4
v 0.3 -0.7 -0.4
v 0.3 -0.6 -0.4
v -1 -0.7 -0.5
v -1 -0.6 -0.5
v -0.9 -0.7 -0.5
v -0.9 -0.6 -0.5
v 0.1 -0.7 -0.5
v 0.1 -0.6 -0.5
v 0.2 -0.7 -0.5
v 0.2 -0.6 -0.5
v -1.1 -0.7 -1.2
v -1.1 -0.6 -1.2
v -1 -0.9 -1.2
v -1 -0.7 -1.2
v -1 -0.6 -1.2
v -0.9 -0.9 -1.2
v -0.9 -0.7 -1.2
v -0.9 -0.6 -1.2
v -0.8 -0.7 -1.2
v -0.8 -0.6 -1.2
v 0 -0.7 -1.2
v 0 -0.6 -1.2
v 0.1 -0.9 -1.2
v 0.1 -0.7 -1.2
v 0.1 -0.6 -1.2
v 0.2 -0.9 -1.2
v 0.2 -0.7 -1.2
v 0.2 -0.6 -1.2
v 0.3 -0.7 -1.2
v 0.3 -0.6 -1.2
v -1 -0.7 -1.3
v -1 -0.6 -1.3
v -0.9 -0.7 -1.3
v -0.9 -0.6 -1.3
v 0.1 -0.7 -1.3
v 0.1 -0.6 -1.3
v 0.2 -0.7 -1.3
v 0.2 -0.6 -1.3
v -0.2 -0.9 1
v -0.1 -0.9 1
v 0.9 -0.9 1
v 1 -0.9 1
v -0.2 -0.9 0.9
v -0.1 -0.9 0.9
v 0.9 -0.9 0.9
v 1 -0.9 0.9
v -0.2 -0.9 0.2
v -0.1 -0.9 0.2
v 0.9 -0.9 0.2
v 1 -0.9 0.2
v -0.2 -0.9 0.1
v -0.1 -0.9 0.1
v 0.9 -0.9 0.1
v 1 -0.9 0.1
v -1 -0.9 -0.3
v -0.9 -0.9 -0.3
v 0.1 -0.9 -0.3
v 0.2 -0.9 -0.3
v -1 -0.9 -0.4
v -0.9 -0.9 -0.4
v 0.1 -0.9 -0.4
v 0.2 -0.9 -0.4
v -1 -0.9 -1.1
v -0.9 -0.9 -1.1
v 0.1 -0.9 -1.1
v 0.2 -0.9 -1.1
v -1 -0.9 -1.2
v -0.9 -0.9 -1.2
v 0.1 -0.9 -1.2
v 0.2 -0.9 -1.2
v -0.2 -0.7 1.1
v -0.1 -0.7 1.1
v 0.9 -0.7 1.1
v 1 -0.7 1.1
v -0.3 -0.7 1
v -0.2 -0.7 1
v -0.1 -0.7 1
v 0 -0.7 1
v 0.8 -0.7 1
v 0.9 -0.7 1
v 1 -0.7 1
v 1.1 -0.7 1
v -0.3 -0.7 0.9
v -0.2 -0.7 0.9
v -0.1 -0.7 0.9
v 0 -0.7 0.9
v 0.8 -0.7 0.9
v 0.9 -0.7 0.9
v 1 -0.7 0.9
v 1.1 -0.7 0.9
v -0.2 -0.7 0.8
v -0.1 -0.7 0.8
v 0.9 -0.7 0.8
v 1 -0.7 0.8
v -0.2 -0.7 0.3
v -0.1 -0.7 0.3
v 0.9 -0.7 0.3
v 1 -0.7 0.3
v -0.3 -0.7 0.2
v -0.2 -0.7 0.2
v -0.1 -0.7 0.2
v 0 -0.7 0.2
v 0.8 -0.7 0.2
v 0.9 -0.7 0.2
v 1 -0.7 0.2
v 1.1 -0.7 0.2
v -0.3 -0.7 0.1
v -0.2 -0.7 0.1
v -0.1 -0.7 0.1
v 0 -0.7 0.1
v 0.8 -0.7 0.1
v 0.9 -0.7 0.1
v 1 -0.7 0.1
v 1.1 -0.7 0.1
v -0.2 -0.7 0
v -0.1 -0.7 0
v 0.9 -0.7 0
v 1 -0.7 0
v -1 -0.7 -0.2
v -0.9 -0.7 -0.2
v 0.1 -0.7 -0.2
v 0.2 -0.7 -0.2
v -1.1 -0.7 -0.3
v -1 -0.7 -0.3
v -0.9 -0.7 -0.3
v -0.8 -0.7 -0.3
v 0 -0.7 -0.3
v 0.1 -0.7 -0.3
v 0.2 -0.7 -0.3
v 0.3 -0.7 -0.3
v -1.1 -0.7 -0.4
v -1 -0.7 -0.4
v -0.9 -0.7 -0.4
v -0.8 -0.7 -0.4
v 0 -0.7 -0.4
v 0.1 -0.7 -0.4
v 0.2 -0.7 -0.4
v 0.3 -0.7 -0.4
v -1 -0.7 -0.5
v -0.9 -0.7 -0.5
v 0.1 -0.7 -0.5
v 0.2 -0.7 -0.5
v -1 -0.7 -1
v -0.9 -0.7 -1
v 0.1 -0.7 -1
v 0.2 -0.7 -1
v -1.1 -0.7 -1.1
v -1 -0.7 -1.1
v -0.9 -0.7 -1.1
v -0.8 -0.7 -1.1
v 0 -0.7 -1.1
v 0.1 -0.7 -1.1
v 0.2 -0.7 -1.1
v 0.3 -0.7 -1.1
v -1.1 -0.7 -1.2
v -1 -0.7 -1.2
v -0.9 -0.7 -1.2
v -0.8 -0.7 -1.2
v 0 -0.7 -1.2
v 0.1 -0.7 -1.2
v 0.2 -0.7 -1.2
v 0.3 -0.7 -1.2
v -1 -0.7 -1.3
v -0.9 -0.7 -1.3
v 0.1 -0.7 -1.3
v 0.2 -0.7 -1.3
v -0.2 -0.6 1.1
v -0.1 -0.6 1.1
v 0.9 -0.6 1.1
v 1 -0.6 1.1
v -0.3 -0.6 1
v -0.2 -0.6 1
v -0.1 -0.6 1
v 0 -0.6 1
v 0.8 -0.6 1
v 0.9 -0.6 1
v 1 -0.6 1
v 1.1 -0.6 1
v -0.3 -0.6 0.9
v -0.2 -0.6 0.9
v -0.1 -0.6 0.9
v 0 -0.6 0.9
v 0.8 -0.6 0.9
v 0.9 -0.6 0.9
v 1 -0.6 0.9
v 1.1 -0.6 0.9
v -0.2 -0.6 0.8
v -0.1 -0.6 0.8
v 0.9 -0.6 0.8
v 1 -0.6 0.8
v -0.2 -0.6 0.3
v -0.1 -0.6 0.3
v 0.9 -0.6 0.3
v 1 -0.6 0.3
v -0.3 -0.6 0.2
v -0.2 -0.6 0.2
v -0.1 -0.6 0.2
v 0 -0.6 0.2
v 0.8 -0.6 0.2
v 0.9 -0.6 0.2
v 1 -0.6 0.2
v 1.1 -0.6 0.2
v -0.3 -0.6 0.1
v -0.2 -0.6 0.1
v -0.1 -0.6 0.1
v 0 -0.6 0.1
v 0.8 -0.6 0.1
v 0.9 -0.6 0.1
v 1 -0.6 0.1
v 1.1 -0.6 0.1
v -0.2 -0.6 0
v -0.1 -0.6 0
v 0.9 -0.6 0
v 1 -0.6 0
v -1 -0.6 -0.2
v -0.9 -0.6 -0.2
v 0.1 -0.6 -0.2
v 0.2 -0.6 -0.2
v -1.1 -0.6 -0.3
v -1 -0.6 -0.3
v -0.9 -0.6 -0.3
v -0.8 -0.6 -0.3
v 0 -0.6 -0.3
v 0.1 -0.6 -0.3
v 0.2 -0.6 -0.3
v 0.3 -0.6 -0.3
v -1.1 -0.6 -0.4
v -1 -0.6 -0.4
v -0.9 -0.6 -0.4
v -0.8 -0.6 -0.4
v 0 -0.6 -0.4
v 0.1 -0.6 -0.4
v 0.2 -0.6 -0.4
v 0.3 -0.6 -0.4
v -1 -0.6 -0.5
v -0.9 -0.6 -0.5
v 0.1 -0.6 -0.5
v 0.2 -0.6 -0.5
v -1 -0.6 -1
v -0.9 -0.6 -1
v 0.1 -0.6 -1
v 0.2 -0.6 -1
v -1.1 -0.6 -1.1
v -1 -0.6 -1.1
v -0.9 -0.6 -1.1
v -0.8 -0.6 -1.1
v 0 -0.6 -1.1
v 0.1 -0.6 -1.1
v 0.2 -0.6 -1.1
v 0.3 -0.6 -1.1
v -1.1 -0.6 -1.2
v -1 -0.6 -1.2
v -0.9 -0.6 -1.2
v -0.8 -0.6 -1.2
v 0 -0.6 -1.2
v 0.1 -0.6 -1.2
v 0.2 -0.6 -1.2
v 0.3 -0.6 -1.2
v -1 -0.6 -1.3
v -0.9 -0.6 -1.3
v 0.1 -0.6 -1.3
v 0.2 -0.6 -1.3

# faces
f 5/6/1 2/6/1 1/6/1
f 6/6/1 2/6/1 5/6/1
f 7/8/1 4/8/1 3/8/1
f 8/8/1 4/8/1 7/8/1
f 14/4/1 10/4/1 9/4/1
f 15/4/1 10/4/1 14/4/1
f 18/4/1 12/4/1 11/4/1
f 19/4/1 12/4/1 18/4/1
f 21/6/1 14/6/1 13/6/1
f 22/6/1 14/6/1 21/6/1
f 23/6/1 16/6/1 15/6/1
f 24/6/1 16/6/1 23/6/1
f 25/8/1 18/8/1 17/8/1
f 26/8/1 18/8/1 25/8/1
f 27/8/1 20/8/1 19/8/1
f 28/8/1 20/8/1 27/8/1
f 33/10/1 30/10/1 29/10/1
f 34/10/1 30/10/1 33/10/1
f 35/5/1 32/5/1 31/5/1
f 36/5/1 32/5/1 35/5/1
f 42/4/1 38/4/1 37/4/1
f 43/4/1 38/4/1 42/4/1
f 46/4/1 40/4/1 39/4/1
f 47/4/1 40/4/1 46/4/1
f 49/10/1 42/10/1 41/10/1
f 50/10/1 42/10/1 49/10/1
f 51/10/1 44/10/1 43/10/1
f 52/10/1 44/10/1 51/10/1
f 53/5/1 46/5/1 45/5/1
f 54/5/1 46/5/1 53/5/1
f 55/5/1 48/5/1 47/5/1
f 56/5/1 48/5/1 55/5/1
f 61/9/1 58/9/1 57/9/1
f 62/9/1 58/9/1 61/9/1
f 63/1/1 60/1/1 59/1/1
f 64/1/1 60/1/1 63/1/1
f 70/4/1 66/4/1 65/4/1
f 71/4/1 66/4/1 70/4/1
f 74/4/1 68/4/1 67/4/1
f 75/4/1 68/4/1 74/4/1
f 77/9/1 70/9/1 69/9/1
f 78/9/1 70/9/1 77/9/1
f 79/9/1 72/9/1 71/9/1
f 80/9/1 72/9/1 79/9/1
f 81/1/1 74/1/1 73/1/1
f 82/1/1 74/1/1 81/1/1
f 83/1/1 76/1/1 75/1/1
f 84/1/1 76/1/1 83/1/1
f 89/7/1 86/7/1 85/7/1
f 90/7/1 86/7/1 89/7/1
f 91/3/1 88/3/1 87/3/1
f 92/3/1 88/3/1 91/3/1
f 98/4/1 94/4/1 93/4/1
f 99/4/1 94/4/1 98/4/1
f 102/4/1 96/4/1 95/4/1
f 103/4/1 96/4/1 102/4/1
f 105/7/1 98/7/1 97/7/1
f 106/7/1 98/7/1 105/7/1
f 107/7/1 100/7/1 99/7/1
f 108/7/1 100/7/1 107/7/1
f 109/3/1 102/3/1 101/3/1
f 110/3/1 102/3/1 109/3/1
f 111/3/1 104/3/1 103/3/1
f 112/3/1 104/3/1 111/3/1
f 113/4/2 114/4/2 118/4/2
f 118/4/2 114/4/2 119/4/2
f 115/4/2 116/4/2 122/4/2
f 122/4/2 116/4/2 123/4/2
f 117/6/2 118/6/2 125/6/2
f 125/6/2 118/6/2 126/6/2
f 119/6/2 120/6/2 127/6/2
f 127/6/2 120/6/2 128/6/2
f 121/8/2 122/8/2 129/8/2
f 129/8/2 122/8/2 130/8/2
f 123/8/2 124/8/2 131/8/2
f 131/8/2 124/8/2 132/8/2
f 133/6/2 134/6/2 137/6/2
f 137/6/2 134/6/2 138/6/2
f 135/8/2 136/8/2 139/8/2
f 139/8/2 136/8/2 140/8/2
f 141/4/2 142/4/2 146/4/2
f 146/4/2 142/4/2 147/4/2
f 143/4/2 144/4/2 150/4/2
f 150/4/2 144/4/2 151/4/2
f 145/10/2 146/10/2 153/10/2
f 153/10/2 146/10/2 154/10/2
f 147/10/2 148/10/2 155/10/2
f 155/10/2 148/10/2 156/10/2
f 149/5/2 150/5/2 157/5/2
f 157/5/2 150/5/2 158/5/2
f 151/5/2 152/5/2 159/5/2
f 159/5/2 152/5/2 160/5/2
f 161/10/2 162/10/2 165/10/2
f 165/10/2 162/10/2 166/10/2
f 163/5/2 164/5/2 167/5/2
f 167/5/2 164/5/2 168/5/2
f 169/4/2 170/4/2 174/4/2
f 174/4/2 170/4/2 175/4/2
f 171/4/2 172/4/2 178/4/2
f 178/4/2 172/4/2 179/4/2
f 173/9/2 174/9/2 181/9/2
f 181/9/2 174/9/2 182/9/2
f 175/9/2 176/9/2 183/9/2
f 183/9/2 176/9/2 184/9/2
f 177/1/2 178/1/2 185/1/2
f 185/1/2 178/1/2 186/1/2
f 179/1/2 180/1/2 187/1/2
f 187/1/2 180/1/2 188/1/2
f 189/9/2 190/9/2 193/9/2
f 193/9/2 190/9/2 194/9/2
f 191/1/2 192/1/2 195/1/2
f 195/1/2 192/1/2 196/1/2
f 197/4/2 198/4/2 202/4/2
f 202/4/2 198/4/2 203/4/2
f 199/4/2 200/4/2 206/4/2
f 206/4/2 200/4/2 207/4/2
f 201/7/2 202/7/2 209/7/2
f 209/7/2 202/7/2 210/7/2
f 203/7/2 204/7/2 211/7/2
f 211/7/2 204/7/2 212/7/2
f 205/3/2 206/3/2 213/3/2
f 213/3/2 206/3/2 214/3/2
f 207/3/2 208/3/2 215/3/2
f 215/3/2 208/3/2 216/3/2
f 217/7/2 218/7/2 221/7/2
f 221/7/2 218/7/2 222/7/2
f 219/3/2 220/3/2 223/3/2
f 223/3/2 220/3/2 224/3/2
f 227/10/3 226/10/3 225/10/3
f 228/10/3 226/10/3 227/10/3
f 231/7/3 230/7/3 229/7/3
f 232/7/3 230/7/3 231/7/3
f 236/10/3 234/10/3 233/10/3
f 237/10/3 234/10/3 236/10/3
f 238/4/3 236/4/3 235/4/3
f 239/4/3 236/4/3 238/4/3
f 241/10/3 240/10/3 239/10/3
f 242/10/3 240/10/3 241/10/3
f 246/7/3 244/7/3 243/7/3
f 247/7/3 244/7/3 246/7/3
f 248/4/3 246/4/3 245/4/3
f 249/4/3 246/4/3 248/4/3
f 251/7/3 250/7/3 249/7/3
f 252/7/3 250/7/3 251/7/3
f 255/5/3 254/5/3 253/5/3
f 256/5/3 254/5/3 255/5/3
f 259/3/3 258/3/3 257/3/3
f 260/3/3 258/3/3 259/3/3
f 264/5/3 262/5/3 261/5/3
f 265/5/3 262/5/3 264/5/3
f 266/4/3 264/4/3 263/4/3
f 267/4/3 264/4/3 266/4/3
f 269/5/3 268/5/3 267/5/3
f 270/5/3 268/5/3 269/5/3
f 274/3/3 272/3/3 271/3/3
f 275/3/3 272/3/3 274/3/3
f 276/4/3 274/4/3 273/4/3
f 277/4/3 274/4/3 276/4/3
f 279/3/3 278/3/3 277/3/3
f 280/3/3 278/3/3 279/3/3
f 283/6/3 282/6/3 281/6/3
f 284/6/3 282/6/3 283/6/3
f 287/9/3 286/9/3 285/9/3
f 288/9/3 286/9/3 287/9/3
f 292/6/3 290/6/3 289/6/3
f 293/6/3 290/6/3 292/6/3
f 294/4/3 292/4/3 291/4/3
f 295/4/3 292/4/3 294/4/3
f 297/6/3 296/6/3 295/6/3
f 298/6/3 296/6/3 297/6/3
f 302/9/3 300/9/3 299/9/3
f 303/9/3 300/9/3 302/9/3
f 304/4/3 302/4/3 301/4/3
f 305/4/3 302/4/3 304/4/3
f 307/9/3 306/9/3 305/9/3
f 308/9/3 306/9/3 307/9/3
f 311/8/3 310/8/3 309/8/3
f 312/8/3 310/8/3 311/8/3
f 315/1/3 314/1/3 313/1/3
f 316/1/3 314/1/3 315/1/3
f 320/8/3 318/8/3 317/8/3
f 321/8/3 318/8/3 320/8/3
f 322/4/3 320/4/3 319/4/3
f 323/4/3 320/4/3 322/4/3
f 325/8/3 324/8/3 323/8/3
f 326/8/3 324/8/3 325/8/3
f 330/1/3 328/1/3 327/1/3
f 331/1/3 328/1/3 330/1/3
f 332/4/3 330/4/3 329/4/3
f 333/4/3 330/4/3 332/4/3
f 335/1/3 334/1/3 333/1/3
f 336/1/3 334/1/3 335/1/3
f 337/10/4 338/10/4 340/10/4
f 340/10/4 338/10/4 341/10/4
f 339/4/4 340/4/4 342/4/4
f 342/4/4 340/4/4 343/4/4
f 343/10/4 344/10/4 345/10/4
f 345/10/4 344/10/4 346/10/4
f 347/7/4 348/7/4 350/7/4
f 350/7/4 348/7/4 351/7/4
f 349/4/4 350/4/4 352/4/4
f 352/4/4 350/4/4 353/4/4
f 353/7/4 354/7/4 355/7/4
f 355/7/4 354/7/4 356/7/4
f 357/10/4 358/10/4 359/10/4
f 359/10/4 358/10/4 360/10/4
f 361/7/4 362/7/4 363/7/4
f 363/7/4 362/7/4 364/7/4
f 365/5/4 366/5/4 368/5/4
f 368/5/4 366/5/4 369/5/4
f 367/4/4 368/4/4 370/4/4
f 370/4/4 368/4/4 371/4/4
f 371/5/4 372/5/4 373/5/4
f 373/5/4 372/5/4 374/5/4
f 375/3/4 376/3/4 378/3/4
f 378/3/4 376/3/4 379/3/4
f 377/4/4 378/4/4 380/4/4
f 380/4/4 378/4/4 381/4/4
f 381/3/4 382/3/4 383/3/4
f 383/3/4 382/3/4 384/3/4
f 385/5/4 386/5/4 387/5/4
f 387/5/4 386/5/4 388/5/4
f 389/3/4 390/3/4 391/3/4
f 391/3/4 390/3/4 392/3/4
f 393/6/4 394/6/4 396/6/4
f 396/6/4 394/6/4 397/6/4
f 395/4/4 396/4/4 398/4/4
f 398/4/4 396/4/4 399/4/4
f 399/6/4 400/6/4 401/6/4
f 401/6/4 400/6/4 402/6/4
f 403/9/4 404/9/4 406/9/4
f 406/9/4 404/9/4 407/9/4
f 405/4/4 406/4/4 408/4/4
f 408/4/4 406/4/4 409/4/4
f 409/9/4 410/9/4 411/9/4
f 411/9/4 410/9/4 412/9/4
f 413/6/4 414/6/4 415/6/4
f 415/6/4 414/6/4 416/6/4
f 417/9/4 418/9/4 419/9/4
f 419/9/4 418/9/4 420/9/4
f 421/8/4 422/8/4 424/8/4
f 424/8/4 422/8/4 425/8/4
f 423/4/4 424/4/4 426/4/4
f 426/4/4 424/4/4 427/4/4
f 427/8/4 428/8/4 429/8/4
f 429/8/4 428/8/4 430/8/4
f 431/1/4 432/1/4 434/1/4
f 434/1/4 432/1/4 435/1/4
f 433/4/4 434/4/4 436/4/4
f 436/4/4 434/4/4 437/4/4
f 437/1/4 438/1/4 439/1/4
f 439/1/4 438/1/4 440/1/4
f 441/8/4 442/8/4 443/8/4
f 443/8/4 442/8/4 444/8/4
f 445/1/4 446/1/4 447/1/4
f 447/1/4 446/1/4 448/1/4
f 453/4/5 450/4/5 449/4/5
f 454/4/5 450/4/5 453/4/5
f 455/4/5 452/4/5 451/4/5
f 456/4/5 452/4/5 455/4/5
f 461/4/5 458/4/5 457/4/5
f 462/4/5 458/4/5 461/4/5
f 463/4/5 460/4/5 459/4/5
f 464/4/5 460/4/5 463/4/5
f 469/4/5 466/4/5 465/4/5
f 470/4/5 466/4/5 469/4/5
f 471/4/5 468/4/5 467/4/5
f 472/4/5 468/4/5 471/4/5
f 477/4/5 474/4/5 473/4/5
f 478/4/5 474/4/5 477/4/5
f 479/4/5 476/4/5 475/4/5
f 480/4/5 476/4/5 479/4/5
f 486/10/5 482/10/5 481/10/5
f 487/10/5 482/10/5 486/10/5
f 490/7/5 484/7/5 483/7/5
f 491/7/5 484/7/5 490/7/5
f 493/10/5 486/10/5 485/10/5
f 494/10/5 486/10/5 493/10/5
f 495/10/5 488/10/5 487/10/5
f 496/10/5 488/10/5 495/10/5
f 497/7/5 490/7/5 489/7/5
f 498/7/5 490/7/5 497/7/5
f 499/7/5 492/7/5 491/7/5
f 500/7/5 492/7/5 499/7/5
f 501/10/5 495/10/5 494/10/5
f 502/10/5 495/10/5 501/10/5
f 503/7/5 499/7/5 498/7/5
f 504/7/5 499/7/5 503/7/5
f 510/5/5 506/5/5 505/5/5
f 511/5/5 506/5/5 510/5/5
f 514/3/5 508/3/5 507/3/5
f 515/3/5 508/3/5 514/3/5
f 517/5/5 510/5/5 509/5/5
f 518/5/5 510/5/5 517/5/5
f 519/5/5 512/5/5 511/5/5
f 520/5/5 512/5/5 519/5/5
f 521/3/5 514/3/5 513/3/5
f 522/3/5 514/3/5 521/3/5
f 523/3/5 516/3/5 515/3/5
f 524/3/5 516/3/5 523/3/5
f 525/5/5 519/5/5 518/5/5
f 526/5/5 519/5/5 525/5/5
f 527/3/5 523/3/5 522/3/5
f 528/3/5 523/3/5 527/3/5
f 534/6/5 530/6/5 529/6/5
f 535/6/5 530/6/5 534/6/5
f 538/9/5 532/9/5 531/9/5
f 539/9/5 532/9/5 538/9/5
f 541/6/5 534/6/5 533/6/5
f 542/6/5 534/6/5 541/6/5
f 543/6/5 536/6/5 535/6/5
f 544/6/5 536/6/5 543/6/5
f 545/9/5 538/9/5 537/9/5
f 546/9/5 538/9/5 545/9/5
f 547/9/5 540/9/5 539/9/5
f 548/9/5 540/9/5 547/9/5
f 549/6/5 543/6/5 542/6/5
f 550/6/5 543/6/5 549/6/5
f 551/9/5 547/9/5 546/9/5
f 552/9/5 547/9/5 551/9/5
f 558/8/5 554/8/5 553/8/5
f 559/8/5 554/8/5 558/8/5
f 562/1/5 556/1/5 555/1/5
f 563/1/5 556/1/5 562/1/5
f 565/8/5 558/8/5 557/8/5
f 566/8/5 558/8/5 565/8/5
f 567/8/5 560/8/5 559/8/5
f 568/8/5 560/8/5 567/8/5
f 569/1/5 562/1/5 561/1/5
f 570/1/5 562/1/5 569/1/5
f 571/1/5 564/1/5 563/1/5
f 572/1/5 564/1/5 571/1/5
f 573/8/5 567/8/5 566/8/5
f 574/8/5 567/8/5 573/8/5
f 575/1/5 571/1/5 570/1/5
f 576/1/5 571/1/5 575/1/5
f 577/10/6 578/10/6 582/10/6
f 582/10/6 578/10/6 583/10/6
f 579/7/6 580/7/6 586/7/6
f 586/7/6 580/7/6 587/7/6
f 581/10/6 582/10/6 589/10/6
f 582/2/6 583/2/6 590/2/6
f 589/10/6 582/10/6 590/10/6
f 583/10/6 584/10/6 591/10/6
f 590/2/6 583/2/6 591/2/6
f 591/10/6 584/10/6 592/10/6
f 585/7/6 586/7/6 593/7/6
f 586/2/6 587/2/6 594/2/6
f 593/7/6 586/7/6 594/7/6
f 587/7/6 588/7/6 595/7/6
f 594/2/6 587/2/6 595/2/6
f 595/7/6 588/7/6 596/7/6
f 590/10/6 591/10/6 597/10/6
f 597/10/6 591/10/6 598/10/6
f 594/7/6 595/7/6 599/7/6
f 599/7/6 595/7/6 600/7/6
f 601/5/6 602/5/6 606/5/6
f 606/5/6 602/5/6 607/5/6
f 603/3/6 604/3/6 610/3/6
f 610/3/6 604/3/6 611/3/6
f 605/5/6 606/5/6 613/5/6
f 606/2/6 607/2/6 614/2/6
f 613/5/6 606/5/6 614/5/6
f 607/5/6 608/5/6 615/5/6
f 614/2/6 607/2/6 615/2/6
f 615/5/6 608/5/6 616/5/6
f 609/3/6 610/3/6 617/3/6
f 610/2/6 611/2/6 618/2/6
f 617/3/6 610/3/6 618/3/6
f 611/3/6 612/3/6 619/3/6
f 618/2/6 611/2/6 619/2/6
f 619/3/6 612/3/6 620/3/6
f 614/5/6 615/5/6 621/5/6
f 621/5/6 615/5/6 622/5/6
f 618/3/6 619/3/6 623/3/6
f 623/3/6 619/3/6 624/3/6
f 625/6/6 626/6/6 630/6/6
f 630/6/6 626/6/6 631/6/6
f 627/9/6 628/9/6 634/9/6
f 634/9/6 628/9/6 635/9/6
f 629/6/6 630/6/6 637/6/6
f 630/2/6 631/2/6 638/2/6
f 637/6/6 630/6/6 638/6/6
f 631/6/6 632/6/6 639/6/6
f 638/2/6 631/2/6 639/2/6
f 639/6/6 632/6/6 640/6/6
f 633/9/6 634/9/6 641/9/6
f 634/2/6 635/2/6 642/2/6
f 641/9/6 634/9/6 642/9/6
f 635/9/6 636/9/6 643/9/6
f 642/2/6 635/2/6 643/2/6
f 643/9/6 636/9/6 644/9/6
f 638/6/6 639/6/6 645/6/6
f 645/6/6 639/6/6 646/6/6
f 642/9/6 643/9/6 647/9/6
f 647/9/6 643/9/6 648/9/6
f 649/8/6 650/8/6 654/8/6
f 654/8/6 650/8/6 655/8/6
f 651/1/6 652/1/6 658/1/6
f 658/1/6 652/1/6 659/1/6
f 653/8/6 654/8/6 661/8/6
f 654/2/6 655/2/6 662/2/6
f 661/8/6 654/8/6 662/8/6
f 655/8/6 656/8/6 663/8/6
f 662/2/6 655/2/6 663/2/6
f 663/8/6 656/8/6 664/8/6
f 657/1/6 658/1/6 665/1/6
f 658/2/6 659/2/6 666/2/6
f 665/1/6 658/1/6 666/1/6
f 659/1/6 660/1/6 667/1/6
f 666/2/6 659/2/6 667/2/6
f 667/1/6 660/1/6 668/1/6
f 662/8/6 663/8/6 669/8/6
f 669/8/6 663/8/6 670/8/6
f 666/1/6 667/1/6 671/1/6
f 671/1/6 667/1/6 672/1/6
