# MagicaVoxel @ Ephtracy

# group
o 

# material
mtllib Rock 3.mtl
usemtl palette

# normals
vn -1 0 0
vn 1 0 0
vn 0 0 1
vn 0 0 -1
vn 0 -1 0
vn 0 1 0

# texcoords
vt 0.0957031 0.5
vt 0.0996094 0.5

# verts
v -0.5 -0.7 0.2
v -0.5 -0.7 -0.1
v -0.5 -0.6 0.2
v -0.5 -0.6 -0.1
v -0.4 -0.7 0.3
v -0.4 -0.7 0.2
v -0.4 -0.7 -0.1
v -0.4 -0.7 -0.2
v -0.4 -0.6 0.3
v -0.4 -0.6 0.2
v -0.4 -0.6 -0.1
v -0.4 -0.6 -0.2
v -0.4 -0.5 0.2
v -0.4 -0.5 -0.1
v -0.3 -0.7 0.4
v -0.3 -0.7 0.3
v -0.3 -0.7 -0.2
v -0.3 -0.7 -0.3
v -0.3 -0.6 0.4
v -0.3 -0.6 0.3
v -0.3 -0.6 0.2
v -0.3 -0.6 -0.1
v -0.3 -0.6 -0.2
v -0.3 -0.6 -0.3
v -0.3 -0.5 0.3
v -0.3 -0.5 0.2
v -0.3 -0.5 0.1
v -0.3 -0.5 -0.1
v -0.3 -0.5 -0.2
v -0.3 -0.4 0.2
v -0.3 -0.4 0.1
v -0.3 -0.4 -0.1
v -5.96046e-008 -0.7 0.4
v -5.96046e-008 -0.7 0.3
v -5.96046e-008 -0.7 -0.2
v -5.96046e-008 -0.7 -0.3
v -5.96046e-008 -0.6 0.4
v -5.96046e-008 -0.6 0.3
v -5.96046e-008 -0.6 0.2
v -5.96046e-008 -0.6 -0.1
v -5.96046e-008 -0.6 -0.2
v -5.96046e-008 -0.6 -0.3
v -5.96046e-008 -0.5 0.3
v -5.96046e-008 -0.5 0.2
v -5.96046e-008 -0.5 0.1
v -5.96046e-008 -0.5 5.96046e-008
v -5.96046e-008 -0.5 -0.1
v -5.96046e-008 -0.5 -0.2
v -5.96046e-008 -0.4 0.2
v -5.96046e-008 -0.4 -0.1
v 0.0999999 -0.7 0.3
v 0.0999999 -0.7 0.2
v 0.0999999 -0.7 -0.1
v 0.0999999 -0.7 -0.2
v 0.0999999 -0.6 0.3
v 0.0999999 -0.6 0.2
v 0.0999999 -0.6 0.1
v 0.0999999 -0.6 5.96046e-008
v 0.0999999 -0.6 -0.1
v 0.0999999 -0.6 -0.2
v 0.0999999 -0.5 0.2
v 0.0999999 -0.5 0.1
v 0.0999999 -0.5 5.96046e-008
v 0.0999999 -0.5 -0.1
v 0.2 -0.7 0.2
v 0.2 -0.7 -0.1
v 0.2 -0.6 0.2
v 0.2 -0.6 -0.1
v -0.3 -0.7 0.4
v -0.3 -0.6 0.4
v -5.96046e-008 -0.7 0.4
v -5.96046e-008 -0.6 0.4
v -0.4 -0.7 0.3
v -0.4 -0.6 0.3
v -0.3 -0.7 0.3
v -0.3 -0.6 0.3
v -0.3 -0.5 0.3
v -0.2 -0.6 0.3
v -0.2 -0.5 0.3
v -5.96046e-008 -0.7 0.3
v -5.96046e-008 -0.6 0.3
v -5.96046e-008 -0.5 0.3
v 0.0999999 -0.7 0.3
v 0.0999999 -0.6 0.3
v -0.5 -0.7 0.2
v -0.5 -0.6 0.2
v -0.4 -0.7 0.2
v -0.4 -0.6 0.2
v -0.4 -0.5 0.2
v -0.3 -0.6 0.2
v -0.3 -0.5 0.2
v -0.3 -0.4 0.2
v -0.2 -0.5 0.2
v -5.96046e-008 -0.6 0.2
v -5.96046e-008 -0.5 0.2
v -5.96046e-008 -0.4 0.2
v 0.0999999 -0.7 0.2
v 0.0999999 -0.6 0.2
v 0.0999999 -0.5 0.2
v 0.2 -0.7 0.2
v 0.2 -0.6 0.2
v -0.5 -0.7 -0.1
v -0.5 -0.6 -0.1
v -0.4 -0.7 -0.1
v -0.4 -0.6 -0.1
v -0.4 -0.5 -0.1
v -0.3 -0.6 -0.1
v -0.3 -0.5 -0.1
v -0.3 -0.4 -0.1
v -0.2 -0.5 -0.1
v -0.2 -0.4 -0.1
v -5.96046e-008 -0.6 -0.1
v -5.96046e-008 -0.5 -0.1
v -5.96046e-008 -0.4 -0.1
v 0.0999999 -0.7 -0.1
v 0.0999999 -0.6 -0.1
v 0.0999999 -0.5 -0.1
v 0.2 -0.7 -0.1
v 0.2 -0.6 -0.1
v -0.4 -0.7 -0.2
v -0.4 -0.6 -0.2
v -0.3 -0.7 -0.2
v -0.3 -0.6 -0.2
v -0.3 -0.5 -0.2
v -0.2 -0.6 -0.2
v -0.2 -0.5 -0.2
v -5.96046e-008 -0.7 -0.2
v -5.96046e-008 -0.6 -0.2
v -5.96046e-008 -0.5 -0.2
v 0.0999999 -0.7 -0.2
v 0.0999999 -0.6 -0.2
v -0.3 -0.7 -0.3
v -0.3 -0.6 -0.3
v -5.96046e-008 -0.7 -0.3
v -5.96046e-008 -0.6 -0.3
v -0.3 -0.7 0.4
v -5.96046e-008 -0.7 0.4
v -0.4 -0.7 0.3
v -0.3 -0.7 0.3
v -5.96046e-008 -0.7 0.3
v 0.0999999 -0.7 0.3
v -0.5 -0.7 0.2
v -0.4 -0.7 0.2
v 0.0999999 -0.7 0.2
v 0.2 -0.7 0.2
v -0.5 -0.7 -0.1
v -0.4 -0.7 -0.1
v 0.0999999 -0.7 -0.1
v 0.2 -0.7 -0.1
v -0.4 -0.7 -0.2
v -0.3 -0.7 -0.2
v -5.96046e-008 -0.7 -0.2
v 0.0999999 -0.7 -0.2
v -0.3 -0.7 -0.3
v -5.96046e-008 -0.7 -0.3
v -0.3 -0.6 0.4
v -5.96046e-008 -0.6 0.4
v -0.4 -0.6 0.3
v -0.3 -0.6 0.3
v -0.2 -0.6 0.3
v -5.96046e-008 -0.6 0.3
v 0.0999999 -0.6 0.3
v -0.5 -0.6 0.2
v -0.4 -0.6 0.2
v -0.3 -0.6 0.2
v -5.96046e-008 -0.6 0.2
v 0.0999999 -0.6 0.2
v 0.2 -0.6 0.2
v 0.0999999 -0.6 0.1
v 0.0999999 -0.6 5.96046e-008
v -0.5 -0.6 -0.1
v -0.4 -0.6 -0.1
v -0.3 -0.6 -0.1
v -5.96046e-008 -0.6 -0.1
v 0.0999999 -0.6 -0.1
v 0.2 -0.6 -0.1
v -0.4 -0.6 -0.2
v -0.3 -0.6 -0.2
v -0.2 -0.6 -0.2
v -5.96046e-008 -0.6 -0.2
v 0.0999999 -0.6 -0.2
v -0.3 -0.6 -0.3
v -5.96046e-008 -0.6 -0.3
v -0.3 -0.5 0.3
v -0.2 -0.5 0.3
v -5.96046e-008 -0.5 0.3
v -0.4 -0.5 0.2
v -0.3 -0.5 0.2
v -0.2 -0.5 0.2
v -5.96046e-008 -0.5 0.2
v 0.0999999 -0.5 0.2
v -0.3 -0.5 0.1
v -5.96046e-008 -0.5 0.1
v 0.0999999 -0.5 0.1
v -5.96046e-008 -0.5 5.96046e-008
v 0.0999999 -0.5 5.96046e-008
v -0.4 -0.5 -0.1
v -0.3 -0.5 -0.1
v -0.2 -0.5 -0.1
v -5.96046e-008 -0.5 -0.1
v 0.0999999 -0.5 -0.1
v -0.3 -0.5 -0.2
v -0.2 -0.5 -0.2
v -5.96046e-008 -0.5 -0.2
v -0.3 -0.4 0.2
v -5.96046e-008 -0.4 0.2
v -0.3 -0.4 0.1
v -0.2 -0.4 0.1
v -0.3 -0.4 -0.1
v -0.2 -0.4 -0.1
v -5.96046e-008 -0.4 -0.1

# faces
f 3/2/1 2/2/1 1/2/1
f 4/2/1 2/2/1 3/2/1
f 9/1/1 6/1/1 5/1/1
f 10/1/1 6/1/1 9/1/1
f 11/1/1 8/1/1 7/1/1
f 12/1/1 8/1/1 11/1/1
f 13/1/1 11/1/1 10/1/1
f 14/1/1 11/1/1 13/1/1
f 19/2/1 16/2/1 15/2/1
f 20/2/1 16/2/1 19/2/1
f 23/2/1 18/2/1 17/2/1
f 24/2/1 18/2/1 23/2/1
f 25/2/1 21/2/1 20/2/1
f 26/2/1 21/2/1 25/2/1
f 28/2/1 23/2/1 22/2/1
f 29/2/1 23/2/1 28/2/1
f 30/2/1 27/2/1 26/2/1
f 31/1/1 28/1/1 27/1/1
f 31/2/1 27/2/1 30/2/1
f 32/1/1 28/1/1 31/1/1
f 33/2/2 34/2/2 37/2/2
f 37/2/2 34/2/2 38/2/2
f 35/2/2 36/2/2 41/2/2
f 41/2/2 36/2/2 42/2/2
f 38/1/2 39/1/2 43/1/2
f 43/1/2 39/1/2 44/1/2
f 40/1/2 41/1/2 47/1/2
f 47/1/2 41/1/2 48/1/2
f 45/2/2 46/2/2 49/2/2
f 46/2/2 47/2/2 49/2/2
f 44/2/2 45/2/2 49/2/2
f 49/2/2 47/2/2 50/2/2
f 51/1/2 52/1/2 55/1/2
f 55/1/2 52/1/2 56/1/2
f 53/1/2 54/1/2 59/1/2
f 59/1/2 54/1/2 60/1/2
f 56/1/2 57/1/2 61/1/2
f 57/2/2 58/2/2 62/2/2
f 61/1/2 57/1/2 62/1/2
f 58/1/2 59/1/2 63/1/2
f 62/2/2 58/2/2 63/2/2
f 63/1/2 59/1/2 64/1/2
f 65/2/2 66/2/2 67/2/2
f 67/2/2 66/2/2 68/2/2
f 71/2/3 70/2/3 69/2/3
f 72/2/3 70/2/3 71/2/3
f 75/1/3 74/1/3 73/1/3
f 76/1/3 74/1/3 75/1/3
f 78/2/3 77/2/3 76/2/3
f 79/2/3 77/2/3 78/2/3
f 81/1/3 79/1/3 78/1/3
f 82/1/3 79/1/3 81/1/3
f 83/1/3 81/1/3 80/1/3
f 84/1/3 81/1/3 83/1/3
f 87/2/3 86/2/3 85/2/3
f 88/2/3 86/2/3 87/2/3
f 90/1/3 89/1/3 88/1/3
f 91/1/3 89/1/3 90/1/3
f 93/2/3 92/2/3 91/2/3
f 95/2/3 92/2/3 93/2/3
f 96/2/3 92/2/3 95/2/3
f 98/1/3 95/1/3 94/1/3
f 99/1/3 95/1/3 98/1/3
f 100/2/3 98/2/3 97/2/3
f 101/2/3 98/2/3 100/2/3
f 102/2/4 103/2/4 104/2/4
f 104/2/4 103/2/4 105/2/4
f 105/1/4 106/1/4 107/1/4
f 107/1/4 106/1/4 108/1/4
f 108/1/4 109/1/4 110/1/4
f 110/1/4 109/1/4 111/1/4
f 110/2/4 111/2/4 113/2/4
f 113/2/4 111/2/4 114/2/4
f 112/1/4 113/1/4 116/1/4
f 116/1/4 113/1/4 117/1/4
f 115/2/4 116/2/4 118/2/4
f 118/2/4 116/2/4 119/2/4
f 120/1/4 121/1/4 122/1/4
f 122/1/4 121/1/4 123/1/4
f 123/2/4 124/2/4 125/2/4
f 125/2/4 124/2/4 126/2/4
f 125/1/4 126/1/4 128/1/4
f 128/1/4 126/1/4 129/1/4
f 127/1/4 128/1/4 130/1/4
f 130/1/4 128/1/4 131/1/4
f 132/2/4 133/2/4 134/2/4
f 134/2/4 133/2/4 135/2/4
f 139/2/5 137/2/5 136/2/5
f 140/2/5 137/2/5 139/2/5
f 143/1/5 139/1/5 138/1/5
f 143/1/5 141/1/5 140/1/5
f 143/1/5 140/1/5 139/1/5
f 144/1/5 141/1/5 143/1/5
f 146/2/5 143/2/5 142/2/5
f 147/1/5 144/1/5 143/1/5
f 147/2/5 143/2/5 146/2/5
f 148/2/5 145/2/5 144/2/5
f 148/1/5 144/1/5 147/1/5
f 149/2/5 145/2/5 148/2/5
f 150/1/5 148/1/5 147/1/5
f 151/1/5 148/1/5 150/1/5
f 152/1/5 148/1/5 151/1/5
f 153/1/5 148/1/5 152/1/5
f 154/2/5 152/2/5 151/2/5
f 155/2/5 152/2/5 154/2/5
f 156/2/6 157/2/6 159/2/6
f 159/2/6 157/2/6 160/2/6
f 160/2/6 157/2/6 161/2/6
f 158/1/6 159/1/6 164/1/6
f 164/1/6 159/1/6 165/1/6
f 161/1/6 162/1/6 166/1/6
f 166/1/6 162/1/6 167/1/6
f 167/2/6 168/2/6 169/2/6
f 169/2/6 168/2/6 170/2/6
f 163/2/6 164/2/6 171/2/6
f 171/2/6 164/2/6 172/2/6
f 170/2/6 168/2/6 175/2/6
f 175/2/6 168/2/6 176/2/6
f 172/1/6 173/1/6 177/1/6
f 177/1/6 173/1/6 178/1/6
f 174/1/6 175/1/6 180/1/6
f 180/1/6 175/1/6 181/1/6
f 178/2/6 179/2/6 182/2/6
f 179/2/6 180/2/6 182/2/6
f 182/2/6 180/2/6 183/2/6
f 184/2/6 185/2/6 188/2/6
f 185/1/6 186/1/6 189/1/6
f 188/2/6 185/2/6 189/2/6
f 189/1/6 186/1/6 190/1/6
f 187/1/6 188/1/6 192/1/6
f 190/1/6 191/1/6 193/1/6
f 193/1/6 191/1/6 194/1/6
f 193/2/6 194/2/6 195/2/6
f 195/2/6 194/2/6 196/2/6
f 187/1/6 192/1/6 197/1/6
f 197/1/6 192/1/6 198/1/6
f 195/1/6 196/1/6 200/1/6
f 200/1/6 196/1/6 201/1/6
f 198/2/6 199/2/6 202/2/6
f 199/1/6 200/1/6 203/1/6
f 202/2/6 199/2/6 203/2/6
f 203/1/6 200/1/6 204/1/6
f 205/2/6 206/2/6 207/2/6
f 207/2/6 206/2/6 208/2/6
f 207/1/6 208/1/6 209/1/6
f 208/2/6 206/2/6 210/2/6
f 209/1/6 208/1/6 210/1/6
f 210/2/6 206/2/6 211/2/6
