# MagicaVoxel @ Ephtracy

# group
o 

# material
mtllib Rock 5.mtl
usemtl palette

# normals
vn -1 0 0
vn 1 0 0
vn 0 0 1
vn 0 0 -1
vn 0 -1 0
vn 0 1 0

# texcoords
vt 0.0957031 0.5
vt 0.0996094 0.5

# verts
v -0.6 -0.7 -0.8
v -0.6 -0.7 -0.9
v -0.6 -0.6 -0.8
v -0.6 -0.6 -0.9
v -0.5 -0.7 -0.6
v -0.5 -0.7 -0.8
v -0.5 -0.6 -0.6
v -0.5 -0.6 -0.8
v -0.3 -0.6 -0.6
v -0.3 -0.6 -0.8
v -0.3 -0.5 -0.6
v -0.3 -0.5 -0.8
v -0.2 -0.7 -0.5
v -0.2 -0.7 -0.6
v -0.2 -0.7 -0.8
v -0.2 -0.7 -1
v -0.2 -0.6 -0.6
v -0.2 -0.6 -0.8
v -0.2 -0.6 -1
v -0.2 -0.5 -0.5
v -0.2 -0.5 -0.6
v -0.0999999 -0.6 -0.8
v -0.0999999 -0.6 -1
v -0.0999999 -0.5 -0.8
v -0.0999999 -0.5 -1
v 5.96046e-008 -0.7 -0.4
v 5.96046e-008 -0.7 -0.5
v 5.96046e-008 -0.5 -0.4
v 5.96046e-008 -0.5 -0.5
v 0.1 -0.7 -0.3
v 0.1 -0.7 -0.4
v 0.1 -0.6 -0.3
v 0.1 -0.6 -0.4
v 0.2 -0.7 -0.2
v 0.2 -0.7 -0.3
v 0.2 -0.6 -0.3
v 0.2 -0.6 -0.4
v 0.2 -0.5 -0.2
v 0.2 -0.5 -0.3
v 0.2 -0.5 -0.4
v 0.2 -0.5 -0.6
v 0.2 -0.5 -0.8
v 0.2 -0.4 -0.3
v 0.2 -0.4 -0.4
v 0.2 -0.4 -0.6
v 0.2 -0.4 -0.8
v 0.2 -0.2 -0.4
v 0.2 -0.2 -0.6
v 0.3 -0.7 -0.1
v 0.3 -0.7 -0.2
v 0.3 -0.7 -0.5
v 0.3 -0.7 -0.6
v 0.3 -0.6 -0.1
v 0.3 -0.6 -0.2
v 0.3 -0.6 -0.5
v 0.3 -0.6 -0.6
v 0.4 -0.7 -9.68575e-008
v 0.4 -0.7 -0.1
v 0.4 -0.6 -9.68575e-008
v 0.4 -0.6 -0.1
v 0.4 -0.5 -0.2
v 0.4 -0.5 -0.3
v 0.4 -0.4 -0.2
v 0.4 -0.4 -0.3
v -0.4 -0.7 -0.8
v -0.4 -0.7 -0.9
v -0.4 -0.6 -0.8
v -0.4 -0.6 -0.9
v 0.1 -0.6 -0.9
v 0.1 -0.6 -1
v 0.1 -0.5 -0.9
v 0.1 -0.5 -1
v 0.2 -0.7 -0.5
v 0.2 -0.7 -0.6
v 0.2 -0.6 -0.5
v 0.2 -0.6 -0.6
v 0.2 -0.6 -0.8
v 0.2 -0.6 -0.9
v 0.2 -0.5 -0.8
v 0.2 -0.5 -0.9
v 0.3 -0.7 -0.9
v 0.3 -0.7 -1
v 0.3 -0.6 -0.9
v 0.3 -0.6 -1
v 0.4 -0.5 -0.7
v 0.4 -0.5 -0.8
v 0.4 -0.4 -0.7
v 0.4 -0.4 -0.8
v 0.5 -0.7 -0.8
v 0.5 -0.7 -0.9
v 0.5 -0.6 -0.7
v 0.5 -0.6 -0.8
v 0.5 -0.6 -0.9
v 0.5 -0.5 -0.7
v 0.5 -0.5 -0.8
v 0.5 -0.4 -0.4
v 0.5 -0.4 -0.5
v 0.5 -0.4 -0.6
v 0.5 -0.3 -0.5
v 0.5 -0.3 -0.6
v 0.5 -0.2 -0.4
v 0.5 -0.2 -0.6
v 0.6 -0.7 -9.68575e-008
v 0.6 -0.7 -0.1
v 0.6 -0.7 -0.7
v 0.6 -0.7 -0.8
v 0.6 -0.6 -9.68575e-008
v 0.6 -0.6 -0.1
v 0.6 -0.6 -0.7
v 0.6 -0.6 -0.8
v 0.6 -0.5 -0.2
v 0.6 -0.5 -0.4
v 0.6 -0.5 -0.6
v 0.6 -0.5 -0.7
v 0.6 -0.4 -0.2
v 0.6 -0.4 -0.4
v 0.6 -0.4 -0.6
v 0.6 -0.4 -0.7
v 0.7 -0.7 -0.1
v 0.7 -0.7 -0.2
v 0.7 -0.7 -0.4
v 0.7 -0.7 -0.7
v 0.7 -0.6 -0.1
v 0.7 -0.6 -0.2
v 0.7 -0.6 -0.4
v 0.7 -0.5 -0.2
v 0.7 -0.5 -0.7
v 0.8 -0.7 -0.2
v 0.8 -0.7 -0.4
v 0.8 -0.6 -0.2
v 0.8 -0.6 -0.4
v 0.4 -0.7 -9.68575e-008
v 0.4 -0.6 -9.68575e-008
v 0.6 -0.7 -9.68575e-008
v 0.6 -0.6 -9.68575e-008
v 0.3 -0.7 -0.1
v 0.3 -0.6 -0.1
v 0.4 -0.7 -0.1
v 0.4 -0.6 -0.1
v 0.6 -0.7 -0.1
v 0.6 -0.6 -0.1
v 0.7 -0.7 -0.1
v 0.7 -0.6 -0.1
v 0.2 -0.7 -0.2
v 0.2 -0.5 -0.2
v 0.3 -0.7 -0.2
v 0.3 -0.6 -0.2
v 0.4 -0.5 -0.2
v 0.4 -0.4 -0.2
v 0.6 -0.5 -0.2
v 0.6 -0.4 -0.2
v 0.7 -0.7 -0.2
v 0.7 -0.6 -0.2
v 0.7 -0.5 -0.2
v 0.8 -0.7 -0.2
v 0.8 -0.6 -0.2
v 0.1 -0.7 -0.3
v 0.1 -0.6 -0.3
v 0.2 -0.7 -0.3
v 0.2 -0.6 -0.3
v 0.2 -0.5 -0.3
v 0.2 -0.4 -0.3
v 0.4 -0.5 -0.3
v 0.4 -0.4 -0.3
v 5.96046e-008 -0.7 -0.4
v 5.96046e-008 -0.5 -0.4
v 0.1 -0.7 -0.4
v 0.1 -0.6 -0.4
v 0.2 -0.6 -0.4
v 0.2 -0.5 -0.4
v 0.2 -0.4 -0.4
v 0.2 -0.2 -0.4
v 0.4 -0.4 -0.4
v 0.5 -0.4 -0.4
v 0.5 -0.2 -0.4
v -0.2 -0.7 -0.5
v -0.2 -0.5 -0.5
v 5.96046e-008 -0.7 -0.5
v 5.96046e-008 -0.5 -0.5
v -0.5 -0.7 -0.6
v -0.5 -0.6 -0.6
v -0.3 -0.6 -0.6
v -0.3 -0.5 -0.6
v -0.2 -0.7 -0.6
v -0.2 -0.6 -0.6
v -0.2 -0.5 -0.6
v 0.2 -0.7 -0.6
v 0.2 -0.6 -0.6
v 0.3 -0.7 -0.6
v 0.3 -0.6 -0.6
v -0.6 -0.7 -0.8
v -0.6 -0.6 -0.8
v -0.5 -0.7 -0.8
v -0.5 -0.6 -0.8
v 0.7 -0.7 -0.4
v 0.7 -0.6 -0.4
v 0.8 -0.7 -0.4
v 0.8 -0.6 -0.4
v 0.2 -0.7 -0.5
v 0.2 -0.6 -0.5
v 0.3 -0.7 -0.5
v 0.3 -0.6 -0.5
v 0.2 -0.4 -0.6
v 0.2 -0.2 -0.6
v 0.3 -0.4 -0.6
v 0.3 -0.3 -0.6
v 0.5 -0.4 -0.6
v 0.5 -0.3 -0.6
v 0.5 -0.2 -0.6
v 0.4 -0.5 -0.7
v 0.4 -0.4 -0.7
v 0.5 -0.6 -0.7
v 0.5 -0.5 -0.7
v 0.6 -0.7 -0.7
v 0.6 -0.6 -0.7
v 0.6 -0.5 -0.7
v 0.6 -0.4 -0.7
v 0.7 -0.7 -0.7
v 0.7 -0.5 -0.7
v -0.4 -0.7 -0.8
v -0.4 -0.6 -0.8
v -0.3 -0.6 -0.8
v -0.3 -0.5 -0.8
v -0.2 -0.7 -0.8
v -0.2 -0.6 -0.8
v -0.0999999 -0.6 -0.8
v -0.0999999 -0.5 -0.8
v 0.2 -0.6 -0.8
v 0.2 -0.5 -0.8
v 0.2 -0.4 -0.8
v 0.4 -0.6 -0.8
v 0.4 -0.5 -0.8
v 0.4 -0.4 -0.8
v 0.5 -0.7 -0.8
v 0.5 -0.6 -0.8
v 0.5 -0.5 -0.8
v 0.6 -0.7 -0.8
v 0.6 -0.6 -0.8
v -0.6 -0.7 -0.9
v -0.6 -0.6 -0.9
v -0.4 -0.7 -0.9
v -0.4 -0.6 -0.9
v 0.1 -0.6 -0.9
v 0.1 -0.5 -0.9
v 0.2 -0.6 -0.9
v 0.2 -0.5 -0.9
v 0.3 -0.7 -0.9
v 0.3 -0.6 -0.9
v 0.5 -0.7 -0.9
v 0.5 -0.6 -0.9
v -0.2 -0.7 -1
v -0.2 -0.6 -1
v -0.0999999 -0.6 -1
v -0.0999999 -0.5 -1
v 0.1 -0.6 -1
v 0.1 -0.5 -1
v 0.3 -0.7 -1
v 0.3 -0.6 -1
v 0.4 -0.7 -9.68575e-008
v 0.6 -0.7 -9.68575e-008
v 0.3 -0.7 -0.1
v 0.4 -0.7 -0.1
v 0.6 -0.7 -0.1
v 0.7 -0.7 -0.1
v 0.2 -0.7 -0.2
v 0.3 -0.7 -0.2
v 0.7 -0.7 -0.2
v 0.8 -0.7 -0.2
v 0.1 -0.7 -0.3
v 0.2 -0.7 -0.3
v 5.96046e-008 -0.7 -0.4
v 0.1 -0.7 -0.4
v 0.7 -0.7 -0.4
v 0.8 -0.7 -0.4
v -0.2 -0.7 -0.5
v 5.96046e-008 -0.7 -0.5
v 0.2 -0.7 -0.5
v 0.3 -0.7 -0.5
v -0.5 -0.7 -0.6
v -0.2 -0.7 -0.6
v 0.2 -0.7 -0.6
v 0.3 -0.7 -0.6
v 0.6 -0.7 -0.7
v 0.7 -0.7 -0.7
v -0.6 -0.7 -0.8
v -0.5 -0.7 -0.8
v -0.4 -0.7 -0.8
v -0.2 -0.7 -0.8
v 0.5 -0.7 -0.8
v 0.6 -0.7 -0.8
v -0.6 -0.7 -0.9
v -0.4 -0.7 -0.9
v 0.3 -0.7 -0.9
v 0.5 -0.7 -0.9
v -0.2 -0.7 -1
v 0.3 -0.7 -1
v 0.2 -0.6 -0.5
v 0.3 -0.6 -0.5
v 0.2 -0.6 -0.6
v 0.3 -0.6 -0.6
v 0.4 -0.6 -9.68575e-008
v 0.6 -0.6 -9.68575e-008
v 0.3 -0.6 -0.1
v 0.4 -0.6 -0.1
v 0.6 -0.6 -0.1
v 0.7 -0.6 -0.1
v 0.3 -0.6 -0.2
v 0.7 -0.6 -0.2
v 0.8 -0.6 -0.2
v 0.1 -0.6 -0.3
v 0.2 -0.6 -0.3
v 0.1 -0.6 -0.4
v 0.2 -0.6 -0.4
v 0.7 -0.6 -0.4
v 0.8 -0.6 -0.4
v -0.5 -0.6 -0.6
v -0.3 -0.6 -0.6
v 0.5 -0.6 -0.7
v 0.6 -0.6 -0.7
v -0.6 -0.6 -0.8
v -0.5 -0.6 -0.8
v -0.4 -0.6 -0.8
v -0.3 -0.6 -0.8
v -0.2 -0.6 -0.8
v -0.0999999 -0.6 -0.8
v 0.2 -0.6 -0.8
v 0.4 -0.6 -0.8
v 0.5 -0.6 -0.8
v 0.6 -0.6 -0.8
v -0.6 -0.6 -0.9
v -0.4 -0.6 -0.9
v 0.1 -0.6 -0.9
v 0.2 -0.6 -0.9
v 0.3 -0.6 -0.9
v 0.5 -0.6 -0.9
v -0.2 -0.6 -1
v -0.0999999 -0.6 -1
v 0.1 -0.6 -1
v 0.3 -0.6 -1
v 0.2 -0.5 -0.2
v 0.4 -0.5 -0.2
v 0.6 -0.5 -0.2
v 0.7 -0.5 -0.2
v 0.2 -0.5 -0.3
v 0.4 -0.5 -0.3
v 5.96046e-008 -0.5 -0.4
v 0.2 -0.5 -0.4
v 0.6 -0.5 -0.4
v -0.2 -0.5 -0.5
v 5.96046e-008 -0.5 -0.5
v -0.3 -0.5 -0.6
v -0.2 -0.5 -0.6
v 5.96046e-008 -0.5 -0.6
v 0.2 -0.5 -0.6
v 0.6 -0.5 -0.6
v 0.4 -0.5 -0.7
v 0.5 -0.5 -0.7
v 0.6 -0.5 -0.7
v 0.7 -0.5 -0.7
v -0.3 -0.5 -0.8
v -0.0999999 -0.5 -0.8
v 5.96046e-008 -0.5 -0.8
v 0.2 -0.5 -0.8
v 0.4 -0.5 -0.8
v 0.5 -0.5 -0.8
v 0.1 -0.5 -0.9
v 0.2 -0.5 -0.9
v -0.0999999 -0.5 -1
v 0.1 -0.5 -1
v 0.4 -0.4 -0.2
v 0.6 -0.4 -0.2
v 0.2 -0.4 -0.3
v 0.4 -0.4 -0.3
v 0.2 -0.4 -0.4
v 0.4 -0.4 -0.4
v 0.5 -0.4 -0.4
v 0.6 -0.4 -0.4
v 0.5 -0.4 -0.5
v 0.2 -0.4 -0.6
v 0.3 -0.4 -0.6
v 0.5 -0.4 -0.6
v 0.6 -0.4 -0.6
v 0.4 -0.4 -0.7
v 0.6 -0.4 -0.7
v 0.2 -0.4 -0.8
v 0.4 -0.4 -0.8
v 0.2 -0.2 -0.4
v 0.5 -0.2 -0.4
v 0.2 -0.2 -0.6
v 0.5 -0.2 -0.6

# faces
f 3/1/1 2/1/1 1/1/1
f 4/1/1 2/1/1 3/1/1
f 7/1/1 6/1/1 5/1/1
f 8/1/1 6/1/1 7/1/1
f 11/2/1 10/2/1 9/2/1
f 12/2/1 10/2/1 11/2/1
f 17/1/1 14/1/1 13/1/1
f 18/1/1 16/1/1 15/1/1
f 19/1/1 16/1/1 18/1/1
f 20/1/1 17/1/1 13/1/1
f 21/1/1 17/1/1 20/1/1
f 24/1/1 23/1/1 22/1/1
f 25/1/1 23/1/1 24/1/1
f 28/1/1 27/1/1 26/1/1
f 29/1/1 27/1/1 28/1/1
f 32/1/1 31/1/1 30/1/1
f 33/1/1 31/1/1 32/1/1
f 36/1/1 35/1/1 34/1/1
f 38/1/1 36/1/1 34/1/1
f 38/1/1 37/1/1 36/1/1
f 39/1/1 37/1/1 38/1/1
f 40/1/1 37/1/1 39/1/1
f 43/1/1 40/1/1 39/1/1
f 43/1/1 41/1/1 40/1/1
f 44/1/1 41/1/1 43/1/1
f 45/2/1 42/2/1 41/2/1
f 45/1/1 41/1/1 44/1/1
f 46/2/1 42/2/1 45/2/1
f 47/1/1 45/1/1 44/1/1
f 48/1/1 45/1/1 47/1/1
f 53/1/1 50/1/1 49/1/1
f 54/1/1 50/1/1 53/1/1
f 55/1/1 52/1/1 51/1/1
f 56/1/1 52/1/1 55/1/1
f 59/1/1 58/1/1 57/1/1
f 60/1/1 58/1/1 59/1/1
f 63/2/1 62/2/1 61/2/1
f 64/2/1 62/2/1 63/2/1
f 65/1/2 66/1/2 67/1/2
f 67/1/2 66/1/2 68/1/2
f 69/1/2 70/1/2 71/1/2
f 71/1/2 70/1/2 72/1/2
f 73/1/2 74/1/2 75/1/2
f 75/1/2 74/1/2 76/1/2
f 77/1/2 78/1/2 79/1/2
f 79/1/2 78/1/2 80/1/2
f 81/1/2 82/1/2 83/1/2
f 83/1/2 82/1/2 84/1/2
f 85/2/2 86/2/2 87/2/2
f 87/2/2 86/2/2 88/2/2
f 89/1/2 90/1/2 92/1/2
f 92/1/2 90/1/2 93/1/2
f 91/2/2 92/2/2 94/2/2
f 94/2/2 92/2/2 95/2/2
f 96/1/2 97/1/2 99/1/2
f 97/2/2 98/2/2 99/2/2
f 99/2/2 98/2/2 100/2/2
f 96/1/2 99/1/2 101/1/2
f 99/1/2 100/1/2 101/1/2
f 101/1/2 100/1/2 102/1/2
f 103/1/2 104/1/2 107/1/2
f 107/1/2 104/1/2 108/1/2
f 105/1/2 106/1/2 109/1/2
f 109/1/2 106/1/2 110/1/2
f 111/2/2 112/2/2 115/2/2
f 112/1/2 113/1/2 116/1/2
f 115/2/2 112/2/2 116/2/2
f 113/2/2 114/2/2 117/2/2
f 116/1/2 113/1/2 117/1/2
f 117/2/2 114/2/2 118/2/2
f 119/1/2 120/1/2 123/1/2
f 123/1/2 120/1/2 124/1/2
f 121/1/2 122/1/2 125/1/2
f 124/1/2 125/1/2 126/1/2
f 125/1/2 122/1/2 127/1/2
f 126/1/2 125/1/2 127/1/2
f 128/1/2 129/1/2 130/1/2
f 130/1/2 129/1/2 131/1/2
f 134/1/3 133/1/3 132/1/3
f 135/1/3 133/1/3 134/1/3
f 138/1/3 137/1/3 136/1/3
f 139/1/3 137/1/3 138/1/3
f 142/1/3 141/1/3 140/1/3
f 143/1/3 141/1/3 142/1/3
f 146/1/3 145/1/3 144/1/3
f 147/1/3 145/1/3 146/1/3
f 148/1/3 145/1/3 147/1/3
f 150/1/3 148/1/3 147/1/3
f 150/2/3 149/2/3 148/2/3
f 151/2/3 149/2/3 150/2/3
f 153/1/3 150/1/3 147/1/3
f 154/1/3 150/1/3 153/1/3
f 155/1/3 153/1/3 152/1/3
f 156/1/3 153/1/3 155/1/3
f 159/1/3 158/1/3 157/1/3
f 160/1/3 158/1/3 159/1/3
f 163/1/3 162/1/3 161/1/3
f 164/1/3 162/1/3 163/1/3
f 167/1/3 166/1/3 165/1/3
f 168/1/3 166/1/3 167/1/3
f 169/1/3 166/1/3 168/1/3
f 170/1/3 166/1/3 169/1/3
f 173/1/3 172/1/3 171/1/3
f 174/1/3 172/1/3 173/1/3
f 175/1/3 172/1/3 174/1/3
f 178/1/3 177/1/3 176/1/3
f 179/1/3 177/1/3 178/1/3
f 182/1/3 181/1/3 180/1/3
f 184/1/3 182/1/3 180/1/3
f 185/2/3 183/2/3 182/2/3
f 185/1/3 182/1/3 184/1/3
f 186/2/3 183/2/3 185/2/3
f 189/1/3 188/1/3 187/1/3
f 190/1/3 188/1/3 189/1/3
f 193/1/3 192/1/3 191/1/3
f 194/1/3 192/1/3 193/1/3
f 195/1/4 196/1/4 197/1/4
f 197/1/4 196/1/4 198/1/4
f 199/1/4 200/1/4 201/1/4
f 201/1/4 200/1/4 202/1/4
f 203/1/4 204/1/4 205/1/4
f 205/1/4 204/1/4 206/1/4
f 205/2/4 206/2/4 207/2/4
f 206/1/4 204/1/4 208/1/4
f 207/2/4 206/2/4 208/2/4
f 208/1/4 204/1/4 209/1/4
f 210/2/4 211/2/4 213/2/4
f 212/2/4 213/2/4 215/2/4
f 213/2/4 211/2/4 216/2/4
f 215/2/4 213/2/4 216/2/4
f 216/2/4 211/2/4 217/2/4
f 214/1/4 215/1/4 218/1/4
f 215/1/4 216/1/4 218/1/4
f 218/1/4 216/1/4 219/1/4
f 220/1/4 221/1/4 222/1/4
f 220/1/4 222/1/4 224/1/4
f 222/2/4 223/2/4 225/2/4
f 224/1/4 222/1/4 225/1/4
f 225/2/4 223/2/4 226/2/4
f 226/2/4 223/2/4 227/2/4
f 228/1/4 229/1/4 231/1/4
f 229/2/4 230/2/4 232/2/4
f 231/1/4 229/1/4 232/1/4
f 232/2/4 230/2/4 233/2/4
f 231/2/4 232/2/4 235/2/4
f 235/2/4 232/2/4 236/2/4
f 234/1/4 235/1/4 237/1/4
f 237/1/4 235/1/4 238/1/4
f 239/1/4 240/1/4 241/1/4
f 241/1/4 240/1/4 242/1/4
f 243/1/4 244/1/4 245/1/4
f 245/1/4 244/1/4 246/1/4
f 247/1/4 248/1/4 249/1/4
f 249/1/4 248/1/4 250/1/4
f 251/1/4 252/1/4 253/1/4
f 251/1/4 253/1/4 255/1/4
f 253/1/4 254/1/4 255/1/4
f 255/1/4 254/1/4 256/1/4
f 251/1/4 255/1/4 257/1/4
f 257/1/4 255/1/4 258/1/4
f 262/1/5 260/1/5 259/1/5
f 263/1/5 260/1/5 262/1/5
f 266/1/5 262/1/5 261/1/5
f 266/1/5 264/1/5 263/1/5
f 266/1/5 263/1/5 262/1/5
f 267/1/5 264/1/5 266/1/5
f 270/1/5 266/1/5 265/1/5
f 270/1/5 268/1/5 267/1/5
f 270/1/5 267/1/5 266/1/5
f 272/1/5 270/1/5 269/1/5
f 273/1/5 268/1/5 270/1/5
f 273/1/5 270/1/5 272/1/5
f 274/1/5 268/1/5 273/1/5
f 276/1/5 272/1/5 271/1/5
f 276/1/5 273/1/5 272/1/5
f 277/1/5 273/1/5 276/1/5
f 278/1/5 273/1/5 277/1/5
f 280/1/5 276/1/5 275/1/5
f 280/1/5 277/1/5 276/1/5
f 281/1/5 277/1/5 280/1/5
f 282/1/5 273/1/5 278/1/5
f 283/1/5 281/1/5 280/1/5
f 283/1/5 282/1/5 281/1/5
f 283/1/5 273/1/5 282/1/5
f 283/1/5 280/1/5 279/1/5
f 284/1/5 273/1/5 283/1/5
f 286/1/5 283/1/5 279/1/5
f 287/1/5 283/1/5 286/1/5
f 288/1/5 283/1/5 287/1/5
f 289/1/5 283/1/5 288/1/5
f 290/1/5 283/1/5 289/1/5
f 291/1/5 286/1/5 285/1/5
f 291/1/5 287/1/5 286/1/5
f 292/1/5 287/1/5 291/1/5
f 293/1/5 289/1/5 288/1/5
f 294/1/5 289/1/5 293/1/5
f 295/1/5 293/1/5 288/1/5
f 296/1/5 293/1/5 295/1/5
f 299/1/5 298/1/5 297/1/5
f 300/1/5 298/1/5 299/1/5
f 301/1/6 302/1/6 304/1/6
f 304/1/6 302/1/6 305/1/6
f 303/1/6 304/1/6 307/1/6
f 305/1/6 306/1/6 307/1/6
f 304/1/6 305/1/6 307/1/6
f 307/1/6 306/1/6 308/1/6
f 310/1/6 311/1/6 312/1/6
f 312/1/6 311/1/6 313/1/6
f 308/1/6 309/1/6 314/1/6
f 314/1/6 309/1/6 315/1/6
f 316/1/6 317/1/6 321/1/6
f 321/1/6 317/1/6 322/1/6
f 322/1/6 317/1/6 323/1/6
f 318/1/6 319/1/6 328/1/6
f 328/1/6 319/1/6 329/1/6
f 320/1/6 321/1/6 330/1/6
f 321/1/6 322/1/6 330/1/6
f 330/1/6 322/1/6 331/1/6
f 326/1/6 327/1/6 333/1/6
f 327/1/6 328/1/6 333/1/6
f 333/1/6 328/1/6 334/1/6
f 334/1/6 328/1/6 335/1/6
f 324/1/6 325/1/6 336/1/6
f 336/1/6 325/1/6 337/1/6
f 333/1/6 334/1/6 338/1/6
f 332/1/6 333/1/6 338/1/6
f 338/1/6 334/1/6 339/1/6
f 340/1/6 341/1/6 344/1/6
f 344/1/6 341/1/6 345/1/6
f 342/1/6 343/1/6 348/1/6
f 346/1/6 347/1/6 350/1/6
f 349/1/6 350/1/6 352/1/6
f 350/1/6 347/1/6 353/1/6
f 352/1/6 350/1/6 353/1/6
f 353/1/6 347/1/6 354/1/6
f 348/1/6 343/1/6 355/1/6
f 355/1/6 343/1/6 358/1/6
f 358/1/6 343/1/6 359/1/6
f 351/2/6 352/2/6 360/2/6
f 352/2/6 353/2/6 360/2/6
f 360/2/6 353/2/6 361/2/6
f 353/1/6 354/1/6 362/1/6
f 361/2/6 353/2/6 362/2/6
f 362/1/6 354/1/6 363/1/6
f 356/2/6 357/2/6 364/2/6
f 364/2/6 357/2/6 365/2/6
f 362/1/6 363/1/6 366/1/6
f 361/1/6 362/1/6 366/1/6
f 366/1/6 363/1/6 367/1/6
f 361/1/6 366/1/6 368/1/6
f 368/1/6 366/1/6 369/1/6
f 370/2/6 371/2/6 373/2/6
f 372/1/6 373/1/6 374/1/6
f 373/2/6 371/2/6 375/2/6
f 374/1/6 373/1/6 375/1/6
f 375/2/6 371/2/6 376/2/6
f 376/2/6 371/2/6 377/2/6
f 376/1/6 377/1/6 378/1/6
f 378/1/6 377/1/6 381/1/6
f 381/1/6 377/1/6 382/1/6
f 379/2/6 380/2/6 383/2/6
f 380/2/6 381/2/6 383/2/6
f 381/2/6 382/2/6 383/2/6
f 383/2/6 382/2/6 384/2/6
f 379/2/6 383/2/6 385/2/6
f 385/2/6 383/2/6 386/2/6
f 387/1/6 388/1/6 389/1/6
f 389/1/6 388/1/6 390/1/6
